<?xml version="1.0" encoding="UTF-8"?>
<svg width="64px" height="48px" viewBox="0 0 64 48" version="1.1" xmlns="http://www.w3.org/2000/svg" xmlns:xlink="http://www.w3.org/1999/xlink">
    <!-- Generator: Sketch 49 (51002) - http://www.bohemiancoding.com/sketch -->
    <title>@2x006-card</title>
    <desc>Created with Sketch.</desc>
    <defs></defs>
    <g id="Desktop" stroke="none" stroke-width="1" fill="none" fill-rule="evenodd">
        <g id="18-Join-as-pro" transform="translate(-90.000000, -1191.000000)" fill-rule="nonzero">
            <g id="Section-1" transform="translate(82.000000, 760.000000)">
                <g id="5" transform="translate(0.000000, 415.000000)">
                    <g id="006-card" transform="translate(8.000000, 16.000000)">
                        <circle id="Oval" fill="#FAFAFA" cx="14.66625" cy="33.33375" r="14.66625"></circle>
                        <path d="M48,21.333375 C48.0015,20.57875 48.326875,19.861125 48.893375,19.36275 C49.43975,18.869125 49.4825,18.026 48.988875,17.4795 C48.95875,17.446125 48.926875,17.41425 48.893375,17.384 C46.7115,15.40525 43.338625,15.57 41.359875,17.751875 C39.381125,19.93375 39.545875,23.306625 41.72775,25.285375 C43.760625,27.128875 46.860625,27.128875 48.893375,25.285375 C49.43975,24.79175 49.4825,23.948625 48.988875,23.402125 C48.95875,23.36875 48.926875,23.336875 48.893375,23.306625 C48.326125,22.807625 48.00075,22.088875 48,21.333375 Z" id="Shape" fill="#3EC8AA"></path>
                        <circle id="Oval" fill="#3EC8AA" cx="50.66625" cy="21.2925" r="5.03625"></circle>
                        <g id="Group" transform="translate(21.250000, 8.000000)" fill="#90A4AE">
                            <path d="M4.083375,2.666625 L1.41675,2.666625 C0.680375,2.666625 0.083375,2.069625 0.083375,1.33325 C0.083375,0.596875 0.68025,0 1.416625,0 L4.08325,0 C4.819625,0 5.416625,0.597 5.416625,1.333375 C5.416625,2.06975 4.81975,2.666625 4.083375,2.666625 Z" id="Shape"></path>
                            <path d="M12.083375,2.666625 L9.41675,2.666625 C8.680375,2.666625 8.083375,2.069625 8.083375,1.33325 C8.083375,0.596875 8.68025,0 9.416625,0 L12.08325,0 C12.819625,0 13.416625,0.597 13.416625,1.333375 C13.416625,2.06975 12.81975,2.666625 12.083375,2.666625 Z" id="Shape"></path>
                            <path d="M20.083375,2.666625 L17.41675,2.666625 C16.680375,2.666625 16.083375,2.069625 16.083375,1.33325 C16.083375,0.596875 16.68025,0 17.416625,0 L20.08325,0 C20.819625,0 21.416625,0.597 21.416625,1.333375 C21.416625,2.06975 20.81975,2.666625 20.083375,2.666625 Z" id="Shape"></path>
                            <path d="M28.083375,2.666625 L25.41675,2.666625 C24.680375,2.666625 24.083375,2.069625 24.083375,1.33325 C24.083375,0.596875 24.68025,0 25.416625,0 L28.08325,0 C28.819625,0 29.416625,0.597 29.416625,1.333375 C29.416625,2.06975 28.81975,2.666625 28.083375,2.666625 Z" id="Shape"></path>
                            <path d="M14.75,10.666625 L4.083375,10.666625 C3.347,10.666625 2.75,10.069625 2.75,9.33325 C2.75,8.596875 3.347,8 4.083375,8 L14.75,8 C15.486375,8 16.083375,8.597 16.083375,9.333375 C16.083375,10.06975 15.486375,10.666625 14.75,10.666625 Z" id="Shape"></path>
                            <path d="M14.75,18.666625 L12.083375,18.666625 C11.347,18.666625 10.75,18.069625 10.75,17.33325 C10.75,16.596875 11.347,15.999875 12.083375,15.999875 L14.75,15.999875 C15.486375,15.999875 16.083375,16.596875 16.083375,17.33325 C16.083375,18.06975 15.486375,18.666625 14.75,18.666625 Z" id="Shape"></path>
                        </g>
                        <g id="Group" transform="translate(0.000000, 18.625000)" fill="#000000">
                            <path d="M14.666625,29.375 C6.5665,29.375 0,22.8085 0,14.708375 C0,6.60825 6.5665,0.04175 14.666625,0.04175 C22.76675,0.04175 29.33325,6.60825 29.33325,14.708375 C29.323,22.80425 22.762625,29.36475 14.666625,29.375 Z M14.666625,2.708375 C8.03925,2.708375 2.666625,8.081 2.666625,14.708375 C2.666625,21.33575 8.03925,26.708375 14.666625,26.708375 C21.294,26.708375 26.666625,21.33575 26.666625,14.708375 C26.666625,8.081 21.294125,2.708375 14.666625,2.708375 Z" id="Shape"></path>
                            <path d="M24.093375,25.468375 C23.7395,25.469 23.399875,25.329 23.149375,25.079 L4.296,6.225625 C3.784375,5.696 3.799125,4.851875 4.32875,4.34025 C4.8455,3.84125 5.664625,3.84125 6.18125,4.34025 L25.034625,23.193625 C25.556,23.713625 25.557,24.557875 25.037,25.07925 C24.78625,25.330625 24.445625,25.471625 24.090625,25.471 L24.093375,25.468375 Z" id="Shape"></path>
                        </g>
                        <path d="M14.666625,48 C6.5665,48 0,41.4335 0,33.333375 C0,25.23325 6.5665,18.66675 14.666625,18.66675 C22.76675,18.66675 29.33325,25.23325 29.33325,33.333375 C29.323,41.42925 22.762625,47.98975 14.666625,48 Z M14.666625,21.333375 C8.03925,21.333375 2.666625,26.706 2.666625,33.333375 C2.666625,39.96075 8.03925,45.333375 14.666625,45.333375 C21.294,45.333375 26.666625,39.96075 26.666625,33.333375 C26.666625,26.706 21.294125,21.333375 14.666625,21.333375 Z" id="Shape" fill="#DC143C"></path>
                        <path d="M24.093375,44.096 C23.7395,44.096625 23.399875,43.956625 23.149375,43.706625 L4.296,24.850625 C3.784375,24.321 3.799125,23.476875 4.32875,22.96525 C4.8455,22.46625 5.664625,22.46625 6.18125,22.96525 L25.034625,41.82125 C25.556,42.34125 25.557,43.1855 25.037,43.706875 C24.78625,43.95825 24.445625,44.09925 24.090625,44.098625 L24.093375,44.096 Z" id="Shape" fill="#DC143C"></path>
                        <path d="M57.333375,34.666625 L33.333375,34.666625 C32.597,34.666625 32,34.069625 32,33.33325 C32,32.596875 32.597,31.999875 33.333375,31.999875 L57.333375,31.999875 C59.5425,31.999875 61.333375,30.209 61.333375,27.999875 L61.333375,6.666625 C61.333375,4.4575 59.5425,2.666625 57.333375,2.666625 L20,2.666625 C17.790875,2.666625 16,4.4575 16,6.666625 L16,14.666625 C16,15.403 15.403,16 14.666625,16 C13.93025,16 13.33325,15.403 13.33325,14.666625 L13.33325,6.666625 C13.333375,2.98475 16.318125,0 20,0 L57.333375,0 C61.01525,0 64,2.98475 64,6.666625 L64,28 C64,31.681875 61.01525,34.666625 57.333375,34.666625 Z" id="Shape" fill="#000000"></path>
                        <path d="M45.333375,26.666625 C42.387875,26.678375 39.9905,24.300125 39.97875,21.354625 C39.967,18.409125 42.34525,16.01175 45.29075,16 C46.621875,15.994625 47.907,16.487375 48.893375,17.38125 C49.4405,17.874125 49.4845,18.717125 48.991625,19.26425 C48.960625,19.29875 48.92775,19.3315 48.893375,19.3625 C47.80425,20.31625 47.694625,21.972375 48.648375,23.0615 C48.7245,23.1485 48.806375,23.23025 48.893375,23.3065 C49.4405,23.799375 49.4845,24.642375 48.991625,25.1895 C48.960625,25.224 48.92775,25.25675 48.893375,25.28775 C47.917375,26.171125 46.6495,26.662125 45.333375,26.666625 Z M45.333375,18.666625 C43.860625,18.666625 42.66675,19.8605 42.66675,21.33325 C42.699,22.82925 43.937875,24.01575 45.433875,23.9835 C45.627375,23.979375 45.819875,23.954375 46.008125,23.90925 C45.10825,22.30975 45.10825,20.35675 46.008125,18.75725 C45.788125,18.697125 45.56125,18.666625 45.333375,18.666625 Z" id="Shape" fill="#000000"></path>
                        <path d="M50.666625,26.666625 C47.721125,26.666625 45.33325,24.27875 45.33325,21.33325 C45.33325,18.38775 47.721125,16 50.666625,16 C53.612125,16 56,18.387875 56,21.333375 C56,24.278875 53.61225,26.666625 50.666625,26.666625 Z M50.666625,18.666625 C49.193875,18.666625 48,19.8605 48,21.33325 C48,22.806 49.193875,24 50.666625,24 C52.139375,24 53.33325,22.806125 53.33325,21.333375 C53.33325,19.860625 52.139375,18.666625 50.666625,18.666625 Z" id="Shape" fill="#000000"></path>
                        <path d="M25.333375,10.666625 L22.66675,10.666625 C21.930375,10.666625 21.333375,10.069625 21.333375,9.33325 C21.333375,8.596875 21.93025,8 22.666625,8 L25.33325,8 C26.069625,8 26.666625,8.597 26.666625,9.333375 C26.666625,10.06975 26.06975,10.666625 25.333375,10.666625 Z" id="Shape" fill="#000000"></path>
                        <path d="M33.333375,10.666625 L30.66675,10.666625 C29.930375,10.666625 29.333375,10.069625 29.333375,9.33325 C29.333375,8.596875 29.93025,8 30.666625,8 L33.33325,8 C34.069625,8 34.666625,8.597 34.666625,9.333375 C34.666625,10.06975 34.06975,10.666625 33.333375,10.666625 Z" id="Shape" fill="#000000"></path>
                        <path d="M41.333375,10.666625 L38.66675,10.666625 C37.930375,10.666625 37.333375,10.069625 37.333375,9.33325 C37.333375,8.596875 37.93025,8 38.666625,8 L41.33325,8 C42.069625,8 42.666625,8.597 42.666625,9.333375 C42.666625,10.06975 42.06975,10.666625 41.333375,10.666625 Z" id="Shape" fill="#000000"></path>
                        <path d="M49.333375,10.666625 L46.66675,10.666625 C45.930375,10.666625 45.333375,10.069625 45.333375,9.33325 C45.333375,8.596875 45.93025,8 46.666625,8 L49.33325,8 C50.069625,8 50.666625,8.597 50.666625,9.333375 C50.666625,10.06975 50.06975,10.666625 49.333375,10.666625 Z" id="Shape" fill="#000000"></path>
                        <path d="M36,18.666625 L25.333375,18.666625 C24.597,18.666625 24,18.069625 24,17.33325 C24,16.596875 24.597,16 25.333375,16 L36,16 C36.736375,16 37.333375,16.597 37.333375,17.333375 C37.333375,18.06975 36.736375,18.666625 36,18.666625 Z" id="Shape" fill="#000000"></path>
                        <path d="M36,26.666625 L33.333375,26.666625 C32.597,26.666625 32,26.069625 32,25.33325 C32,24.596875 32.597,23.999875 33.333375,23.999875 L36,23.999875 C36.736375,23.999875 37.333375,24.596875 37.333375,25.33325 C37.333375,26.06975 36.736375,26.666625 36,26.666625 Z" id="Shape" fill="#000000"></path>
                    </g>
                </g>
            </g>
        </g>
    </g>
</svg>