<?xml version="1.0" encoding="UTF-8"?>
<svg width="34px" height="36px" viewBox="0 0 34 36" version="1.1" xmlns="http://www.w3.org/2000/svg" xmlns:xlink="http://www.w3.org/1999/xlink">
    <!-- Generator: Sketch 49 (51002) - http://www.bohemiancoding.com/sketch -->
    <title>@2xicon/carpenters</title>
    <desc>Created with Sketch.</desc>
    <defs></defs>
    <g id="Desktop" stroke="none" stroke-width="1" fill="none" fill-rule="evenodd">
        <g id="01-Landing-Page" transform="translate(-308.000000, -692.000000)">
            <g id="Below-Header" transform="translate(0.000000, 659.000000)">
                <g id="2" transform="translate(298.000000, 24.000000)">
                    <g id="icon/carpenters" transform="translate(10.000000, 9.000000)">
                        <g>
                            <path d="M23.4046406,12.582 C23.1046875,12.582 22.8046641,12.8820234 22.8046641,13.1819766 C22.8046641,13.5419766 23.0446406,13.7819531 23.4046406,13.7819531 C23.7646406,13.7819531 24.0046172,13.5419766 24.0046172,13.1819766 C24.0046172,12.8219766 23.7646406,12.582 23.4046406,12.582 Z" id="Shape" fill="#7AC142" fill-rule="nonzero"></path>
                            <path d="M19.8046406,12.582 C19.5046875,12.582 19.2046641,12.8820234 19.2046641,13.1819766 C19.2046641,13.5419766 19.4446406,13.7819531 19.8046406,13.7819531 C20.1646406,13.7819531 20.4046172,13.5419766 20.4046172,13.1819766 C20.4046172,12.8219766 20.1646406,12.582 19.8046406,12.582 Z" id="Shape" fill="#8200FF" fill-rule="nonzero"></path>
                            <path d="M23.4046406,8.982 C23.1046875,8.982 22.8046641,9.28202344 22.8046641,9.58197656 C22.8046641,9.94197656 23.0446406,10.1819531 23.4046406,10.1819531 C23.7646406,10.1819531 24.0046172,9.94197656 24.0046172,9.58197656 C24.0046172,9.22197656 23.7646406,8.982 23.4046406,8.982 Z" id="Shape" fill="#8200FF" fill-rule="nonzero"></path>
                            <path d="M19.8046406,8.982 C19.5046875,8.982 19.2046641,9.28202344 19.2046641,9.58197656 C19.2046641,9.94197656 19.4446406,10.1819531 19.8046406,10.1819531 C20.1646406,10.1819531 20.4046172,9.94197656 20.4046172,9.58197656 C20.4046172,9.22197656 20.1646406,8.982 19.8046406,8.982 Z" id="Shape" fill="#8200FF" fill-rule="nonzero"></path>
                            <path d="M21.6046406,10.782 C21.3046875,10.782 21.0046641,11.0820234 21.0046641,11.3819766 C21.0046641,11.7419766 21.2446406,11.9819531 21.6046406,11.9819531 C21.9646406,11.9819531 22.2046172,11.7419766 22.2046172,11.3819766 C22.2046172,11.0219766 21.9646406,10.782 21.6046406,10.782 Z" id="Shape" fill="#8200FF" fill-rule="nonzero"></path>
                            <path d="M18.0046406,10.782 C17.7046875,10.782 17.4046641,11.0820234 17.4046641,11.3819766 C17.4046641,11.7419766 17.6446406,11.9819531 18.0046406,11.9819531 C18.3646406,11.9819531 18.6046172,11.7419766 18.6046172,11.3819766 C18.6046172,11.0219766 18.3646406,10.782 18.0046406,10.782 Z" id="Shape" fill="#8200FF" fill-rule="nonzero"></path>
                            <path d="M21.6046406,7.182 C21.3046875,7.182 21.0046641,7.48202344 21.0046641,7.78197656 C21.0046641,8.14197656 21.2446406,8.38195313 21.6046406,8.38195313 C21.9646406,8.38195313 22.2046172,8.14197656 22.2046172,7.78197656 C22.2046172,7.42197656 21.9646406,7.182 21.6046406,7.182 Z" id="Shape" fill="#8200FF" fill-rule="nonzero"></path>
                            <path d="M18.0046406,7.182 C17.7046875,7.182 17.4046641,7.48202344 17.4046641,7.78197656 C17.4046641,8.14197656 17.6446406,8.38195313 18.0046406,8.38195313 C18.3646406,8.38195313 18.6046172,8.14197656 18.6046172,7.78197656 C18.6046172,7.42197656 18.3646406,7.182 18.0046406,7.182 Z" id="Shape" fill="#8200FF" fill-rule="nonzero"></path>
                            <path d="M16.2046406,12.582 C15.9046875,12.582 15.6046641,12.8820234 15.6046641,13.1819766 C15.6046641,13.5419766 15.8446406,13.7819531 16.2046406,13.7819531 C16.5646406,13.7819531 16.8046172,13.5419766 16.8046172,13.1819766 C16.8046172,12.8219766 16.5646406,12.582 16.2046406,12.582 Z" id="Shape" fill="#8200FF" fill-rule="nonzero"></path>
                            <path d="M12.6046406,12.582 C12.3046875,12.582 12.0046641,12.8820234 12.0046641,13.1819766 C12.0046641,13.5419766 12.2446406,13.7819531 12.6046406,13.7819531 C12.9646406,13.7819531 13.2046172,13.5419766 13.2046172,13.1819766 C13.2046172,12.8219766 12.9646406,12.582 12.6046406,12.582 Z" id="Shape" fill="#8200FF" fill-rule="nonzero"></path>
                            <path d="M16.2046406,8.982 C15.9046875,8.982 15.6046641,9.28202344 15.6046641,9.58197656 C15.6046641,9.94197656 15.8446406,10.1819531 16.2046406,10.1819531 C16.5646406,10.1819531 16.8046172,9.94197656 16.8046172,9.58197656 C16.8046172,9.22197656 16.5646406,8.982 16.2046406,8.982 Z" id="Shape" fill="#8200FF" fill-rule="nonzero"></path>
                            <path d="M12.6046406,8.982 C12.3046875,8.982 12.0046641,9.28202344 12.0046641,9.58197656 C12.0046641,9.94197656 12.2446406,10.1819531 12.6046406,10.1819531 C12.9646406,10.1819531 13.2046172,9.94197656 13.2046172,9.58197656 C13.2046172,9.22197656 12.9646406,8.982 12.6046406,8.982 Z" id="Shape" fill="#8200FF" fill-rule="nonzero"></path>
                            <path d="M14.4046406,10.782 C14.1046875,10.782 13.8046641,11.0820234 13.8046641,11.3819766 C13.8046641,11.7419766 14.0446406,11.9819531 14.4046406,11.9819531 C14.7646406,11.9819531 15.0046172,11.7419766 15.0046172,11.3819766 C15.0046172,11.0219766 14.7646406,10.782 14.4046406,10.782 Z" id="Shape" fill="#8200FF" fill-rule="nonzero"></path>
                            <path d="M10.8046406,10.782 C10.5046875,10.782 10.2046641,11.0820234 10.2046641,11.3819766 C10.2046641,11.7419766 10.4446406,11.9819531 10.8046406,11.9819531 C11.1646406,11.9819531 11.4046172,11.7419766 11.4046172,11.3819766 C11.4046172,11.0219766 11.1646406,10.782 10.8046406,10.782 Z" id="Shape" fill="#8200FF" fill-rule="nonzero"></path>
                            <path d="M14.4046406,7.182 C14.1046875,7.182 13.8046641,7.48202344 13.8046641,7.78197656 C13.8046641,8.14197656 14.0446406,8.38195313 14.4046406,8.38195313 C14.7646406,8.38195313 15.0046172,8.14197656 15.0046172,7.78197656 C15.0046172,7.42197656 14.7646406,7.182 14.4046406,7.182 Z" id="Shape" fill="#8200FF" fill-rule="nonzero"></path>
                            <path d="M10.8046406,7.182 C10.5046875,7.182 10.2046641,7.48202344 10.2046641,7.78197656 C10.2046641,8.14197656 10.4446406,8.38195313 10.8046406,8.38195313 C11.1646406,8.38195313 11.4046172,8.14197656 11.4046172,7.78197656 C11.4046172,7.42197656 11.1646406,7.182 10.8046406,7.182 Z" id="Shape" fill="#8200FF" fill-rule="nonzero"></path>
                            <path d="M23.4046406,5.382 C23.1046875,5.382 22.8046641,5.68202344 22.8046641,5.98197656 C22.8046641,6.34197656 23.0446406,6.58195313 23.4046406,6.58195313 C23.7646406,6.58195313 24.0046172,6.34197656 24.0046172,5.98197656 C24.0046172,5.62197656 23.7646406,5.382 23.4046406,5.382 Z" id="Shape" fill="#8200FF" fill-rule="nonzero"></path>
                            <path d="M19.8046406,5.382 C19.5046875,5.382 19.2046641,5.68202344 19.2046641,5.98197656 C19.2046641,6.34197656 19.4446406,6.58195313 19.8046406,6.58195313 C20.1646406,6.58195313 20.4046172,6.34197656 20.4046172,5.98197656 C20.4046172,5.62197656 20.1646406,5.382 19.8046406,5.382 Z" id="Shape" fill="#8200FF" fill-rule="nonzero"></path>
                            <path d="M16.2046406,5.382 C15.9046875,5.382 15.6046641,5.68202344 15.6046641,5.98197656 C15.6046641,6.34197656 15.8446406,6.58195313 16.2046406,6.58195313 C16.5646406,6.58195313 16.8046172,6.34197656 16.8046172,5.98197656 C16.8046172,5.62197656 16.5646406,5.382 16.2046406,5.382 Z" id="Shape" fill="#8200FF" fill-rule="nonzero"></path>
                            <path d="M12.6046406,5.382 C12.3046875,5.382 12.0046641,5.68202344 12.0046641,5.98197656 C12.0046641,6.34197656 12.2446406,6.58195313 12.6046406,6.58195313 C12.9646406,6.58195313 13.2046172,6.34197656 13.2046172,5.98197656 C13.2046172,5.62197656 12.9646406,5.382 12.6046406,5.382 Z" id="Shape" fill="#8200FF" fill-rule="nonzero"></path>
                            <g id="Group" fill="#8200FF" fill-rule="nonzero">
                                <g id="Shape">
                                    <g>
                                        <path d="M33.0046875,34.8000469 L29.4046172,34.8000469 L29.4046172,0.599976563 C29.4046172,0.239976563 29.1646406,8.8817842e-16 28.8046406,8.8817842e-16 L4.80466406,8.8817842e-16 C4.44466406,8.25728375e-16 4.2046875,0.239976563 4.2046875,0.599976563 L4.2046875,34.8000469 L0.6046875,34.8000469 C0.2446875,34.8000469 0.0047109375,35.0400234 0.0047109375,35.4000234 C0.0047109375,35.7600234 0.2446875,36 0.6046875,36 L4.80466406,36 L7.20471094,36 L26.4046641,36 L28.8047109,36 L33.0046875,36 C33.3646875,36 33.6046641,35.7600234 33.6046641,35.4000234 C33.6046641,35.0400234 33.3646875,34.8000469 33.0046875,34.8000469 Z M25.8046875,34.7999766 L7.8046875,34.7999766 L7.8046875,3.6 L25.8046875,3.6 L25.8046875,34.7999766 Z M5.40471094,1.20002344 L28.2047344,1.20002344 L28.2047344,34.7999766 L27.0047109,34.7999766 L27.0047109,3.00002344 C27.0047109,2.64002344 26.7647344,2.40004688 26.4047344,2.40004688 L7.20471094,2.40004688 C6.84471094,2.40004688 6.60473437,2.64002344 6.60473437,3.00002344 L6.60473437,34.7999766 L5.40471094,34.7999766 L5.40471094,1.20002344 Z"></path>
                                        <path d="M24.0046875,17.4000234 L21.6047109,17.4000234 C21.2447109,17.4000234 21.0047344,17.64 21.0047344,18 L21.0047344,18.6000469 L19.8047109,18.6000469 C19.4447109,18.6000469 19.2047344,18.8400234 19.2047344,19.2000234 C19.2047344,19.5600234 19.4447109,19.8 19.8047109,19.8 L21.0047344,19.8 L21.0047344,20.4000469 C21.0047344,20.7600469 21.2447109,21.0000234 21.6047109,21.0000234 L24.0046875,21.0000234 C24.3646875,21.0000234 24.6046641,20.7599766 24.6046641,20.3999766 L24.6046641,18 C24.6046641,17.64 24.3646875,17.4000234 24.0046875,17.4000234 Z M23.4047109,19.8 L22.2046875,19.8 L22.2046875,18.5999766 L23.4047109,18.5999766 L23.4047109,19.8 Z"></path>
                                        <path d="M9.6046875,14.4 L24.0046875,14.4 C24.3646875,14.4 24.6046641,14.1600234 24.6046641,13.8000234 L24.6046641,5.4 C24.6046641,5.04 24.3646875,4.80002344 24.0046875,4.80002344 L9.6046875,4.80002344 C9.2446875,4.80002344 9.00471094,5.04 9.00471094,5.4 L9.00471094,13.8000234 C9.00471094,14.1600234 9.2446875,14.4 9.6046875,14.4 Z M10.2046641,5.99997656 L23.4046406,5.99997656 L23.4046406,13.1999766 L10.2046641,13.1999766 L10.2046641,5.99997656 Z"></path>
                                    </g>
                                </g>
                            </g>
                        </g>
                    </g>
                </g>
            </g>
        </g>
    </g>
</svg>