<?xml version="1.0" encoding="UTF-8"?>
<svg width="100px" height="88px" viewBox="0 0 100 88" version="1.1" xmlns="http://www.w3.org/2000/svg" xmlns:xlink="http://www.w3.org/1999/xlink">
    <!-- Generator: Sketch 49 (51002) - http://www.bohemiancoding.com/sketch -->
    <title>@2xicon/communicate</title>
    <desc>Created with Sketch.</desc>
    <defs></defs>
    <g id="Desktop" stroke="none" stroke-width="1" fill="none" fill-rule="evenodd">
        <g id="01-Landing-Page" transform="translate(-836.000000, -1776.000000)">
            <g id="Section-2" transform="translate(0.000000, 1548.000000)">
                <g id="3" transform="translate(743.000000, 212.000000)">
                    <g id="icon/communicate" transform="translate(93.000000, 16.000000)">
                        <g>
                            <path d="M91.8351738,36.9815951 L70.7513292,36.9815951 L59.4220859,47.8200409 L59.4220859,36.9815951 L54.6163599,36.9815951 C51.2421268,36.9815951 48.4813906,34.2208589 48.4813906,30.8466258 L48.4813906,8.14723926 C48.4813906,4.77300613 51.2421268,2.01226994 54.6163599,2.01226994 L91.8351738,2.01226994 C95.209407,2.01226994 97.9701431,4.77300613 97.9701431,8.14723926 L97.9701431,30.8670757 C97.9701431,34.2413088 95.209407,36.9815951 91.8351738,36.9815951 Z" id="XMLID_275_" fill="#3EC8AA" fill-rule="nonzero"></path>
                            <path d="M16.0887526,79.6605317 C16.1705521,79.6605317 16.2728016,79.6605317 16.3546012,79.6400818 L23.6756646,78.5562372 L23.6756646,85.9386503 C23.6756646,86.9611452 24.5141104,87.799591 25.5366053,87.799591 L64.2687117,87.799591 C65.2912065,87.799591 66.1296524,86.9611452 66.1296524,85.9386503 L66.1296524,59.6809816 C69.401636,56.5316973 71.9783231,52.8507157 73.8188139,48.6993865 C74.2278119,47.7586912 73.8188139,46.6748466 72.8781186,46.2453988 C71.9374233,45.8364008 70.8535787,46.2453988 70.4241309,47.1860941 C68.6858896,51.1124744 66.191002,54.5685072 63.0212679,57.4928425 C62.6327198,57.8404908 62.4282209,58.3312883 62.4282209,58.8629857 L62.4282209,84.0572597 L27.397546,84.0572597 L27.397546,76.3885481 C27.397546,75.8568507 27.1521472,75.3456033 26.7635992,74.9775051 C26.3546012,74.6298569 25.8229039,74.4662577 25.2912065,74.5480573 L15.9660532,75.9591002 C13.2462168,75.8977505 11.0580777,73.6687117 11.0580777,70.9284254 L11.0580777,58.8220859 C11.0580777,57.799591 10.2196319,56.9611452 9.19713701,56.9611452 L6.06830266,56.9611452 C5.00490798,56.9611452 4.20736196,56.6543967 3.9006135,56.1431493 C3.59386503,55.6114519 3.67566462,54.7730061 4.18691207,53.8323108 L10.8535787,41.0920245 C10.996728,40.8261759 11.0580777,40.5398773 11.0580777,40.2331288 L11.0580777,34.793456 C11.0580777,22.8302658 18.0723926,11.8486708 28.9312883,6.79754601 C32.6531697,5.03885481 36.6204499,4.05725971 40.7513292,3.87321063 C41.7738241,3.83231084 42.5713701,2.95296524 42.5304703,1.93047035 C42.4895706,0.90797546 41.6306748,0.110429448 40.5877301,0.151329243 C35.9660532,0.355828221 31.5079755,1.4601227 27.3566462,3.42331288 C15.1889571,9.06748466 7.33619632,21.3783231 7.33619632,34.7730061 L7.33619632,39.7627812 L0.87402863,52.0940695 C-0.230265849,54.2208589 -0.291615542,56.3885481 0.710429448,58.0449898 C1.71247444,59.7014315 3.65521472,60.6625767 6.06830266,60.6625767 L7.35664622,60.6625767 L7.35664622,70.9284254 C7.33619632,75.7546012 11.2625767,79.6605317 16.0887526,79.6605317 Z" id="Shape" fill="#1A1A1A" fill-rule="nonzero"></path>
                            <path d="M58.6858896,49.5378323 C58.9108384,49.6400818 59.1766871,49.6809816 59.4220859,49.6809816 C59.8924335,49.6809816 60.3627812,49.4969325 60.7104294,49.1697342 L71.5079755,38.8425358 L91.8351738,38.8425358 C96.2319018,38.8425358 99.8106339,35.2638037 99.8106339,30.8670757 L99.8106339,8.14723926 C99.8106339,3.75051125 96.2319018,0.171779141 91.8351738,0.171779141 L54.6163599,0.171779141 C50.2196319,0.171779141 46.6408998,3.75051125 46.6408998,8.14723926 L46.6408998,30.8670757 C46.6408998,35.2638037 50.2196319,38.8425358 54.6163599,38.8425358 L57.5611452,38.8425358 L57.5611452,47.8404908 C57.5611452,48.5766871 58.0110429,49.2515337 58.6858896,49.5378323 Z M54.6163599,35.1411043 C52.2646217,35.1411043 50.3423313,33.2188139 50.3423313,30.8670757 L50.3423313,8.14723926 C50.3423313,5.79550102 52.2646217,3.87321063 54.6163599,3.87321063 L91.8351738,3.87321063 C94.1869121,3.87321063 96.1092025,5.79550102 96.1092025,8.14723926 L96.1092025,30.8670757 C96.1092025,33.2188139 94.1869121,35.1411043 91.8351738,35.1411043 L70.7513292,35.1411043 C70.2809816,35.1411043 69.8106339,35.3251534 69.4629857,35.6523517 L61.2625767,43.5051125 L61.2625767,37.002045 C61.2625767,35.9795501 60.4241309,35.1411043 59.401636,35.1411043 L54.6163599,35.1411043 Z" id="Shape" fill="#1A1A1A" fill-rule="nonzero"></path>
                            <path d="M73.2257669,22.0940695 C73.7165644,22.0940695 74.1869121,21.8895706 74.5345603,21.5419223 C74.8822086,21.194274 75.0867076,20.7239264 75.0867076,20.2331288 C75.0867076,19.7423313 74.8822086,19.2719836 74.5345603,18.9243354 C74.1869121,18.5766871 73.7165644,18.392638 73.2257669,18.392638 C72.7349693,18.392638 72.2646217,18.597137 71.9169734,18.9243354 C71.5693252,19.2719836 71.3648262,19.7423313 71.3648262,20.2331288 C71.3648262,20.7239264 71.5693252,21.194274 71.9169734,21.5419223 C72.2646217,21.9100204 72.7349693,22.0940695 73.2257669,22.0940695 Z" id="Shape" fill="#1A1A1A" fill-rule="nonzero"></path>
                            <path d="M80.1378323,22.0940695 C80.6286299,22.0940695 81.0989775,21.8895706 81.4466258,21.5419223 C81.794274,21.194274 81.9783231,20.7239264 81.9783231,20.2331288 C81.9783231,19.7423313 81.7738241,19.2719836 81.4261759,18.9243354 C81.0785276,18.5766871 80.60818,18.392638 80.1173824,18.392638 C79.6265849,18.392638 79.1562372,18.597137 78.808589,18.9243354 C78.4609407,19.2719836 78.2564417,19.7423313 78.2564417,20.2331288 C78.2564417,20.7239264 78.4609407,21.194274 78.808589,21.5419223 C79.1562372,21.9100204 79.6470348,22.0940695 80.1378323,22.0940695 Z" id="Shape" fill="#1A1A1A" fill-rule="nonzero"></path>
                            <path d="M66.3341513,22.0940695 C66.8249489,22.0940695 67.2952965,21.8895706 67.6429448,21.5419223 C67.990593,21.194274 68.195092,20.7239264 68.195092,20.2331288 C68.195092,19.7423313 67.990593,19.2719836 67.6429448,18.9243354 C67.2952965,18.5766871 66.8249489,18.392638 66.3341513,18.392638 C65.8433538,18.392638 65.3730061,18.597137 65.0253579,18.9243354 C64.6777096,19.2719836 64.4732106,19.7423313 64.4732106,20.2331288 C64.4732106,20.7239264 64.6777096,21.194274 65.0253579,21.5419223 C65.3730061,21.9100204 65.8433538,22.0940695 66.3341513,22.0940695 Z" id="Shape" fill="#1A1A1A" fill-rule="nonzero"></path>
                        </g>
                    </g>
                </g>
            </g>
        </g>
    </g>
</svg>