<?xml version="1.0" encoding="UTF-8"?>
<svg width="100px" height="100px" viewBox="0 0 100 100" version="1.1" xmlns="http://www.w3.org/2000/svg" xmlns:xlink="http://www.w3.org/1999/xlink">
    <!-- Generator: Sketch 49 (51002) - http://www.bohemiancoding.com/sketch -->
    <title>@2xicon/find</title>
    <desc>Created with Sketch.</desc>
    <defs></defs>
    <g id="Desktop" stroke="none" stroke-width="1" fill="none" fill-rule="evenodd">
        <g id="01-Landing-Page" transform="translate(-176.000000, -1770.000000)">
            <g id="Section-2" transform="translate(0.000000, 1548.000000)">
                <g id="1" transform="translate(83.000000, 212.000000)">
                    <g id="icon/find" transform="translate(93.000000, 10.000000)">
                        <g>
                            <path d="M71.8737271,52.0264766 L28.3299389,52.0264766 C27.0264766,52.0264766 25.9470468,50.9674134 25.9470468,49.6435845 L25.9470468,39.2362525 C25.9470468,37.9327902 27.00611,36.8533605 28.3299389,36.8533605 L71.8737271,36.8533605 C73.1771894,36.8533605 74.2566191,37.9124236 74.2566191,39.2362525 L74.2566191,49.6435845 C74.2566191,50.9674134 73.1771894,52.0264766 71.8737271,52.0264766 Z" id="XMLID_2077_" fill="#3EC8AA" fill-rule="nonzero"></path>
                            <path d="M41.5885947,7.24032587 L25.6008147,7.24032587 C22.9531568,7.24032587 20.814664,9.37881874 20.814664,12.0264766 L20.814664,18.197556 L17.5763747,18.197556 C16.598778,18.197556 15.8044807,18.9511202 15.7433809,19.9287169 L14.1751527,44.2057026 C10.7331976,44.9592668 8.04480652,47.9327902 7.75967413,51.5784114 L5.25458248,84.3075356 L1.85336049,84.3075356 C0.83503055,84.3075356 0,85.1425662 0,86.1608961 L0,93.5132383 C0,96.7107943 2.60692464,99.3177189 5.80448065,99.3177189 L39.4704684,99.3177189 C42.6680244,99.3177189 45.2749491,96.7107943 45.2749491,93.5132383 L45.2749491,86.1608961 C45.2749491,85.1425662 44.4399185,84.3075356 43.4215886,84.3075356 L8.96130346,84.3075356 L11.4256619,51.8635438 C11.6089613,49.5417515 13.5641548,47.7087576 15.9063136,47.7087576 C16.8839104,47.7087576 17.6782077,46.9551935 17.7393075,45.9775967 L19.3075356,21.904277 L22.6680244,21.904277 L44.5417515,21.904277 L55.3360489,21.904277 L77.209776,21.904277 L80.5702648,21.904277 L82.1384929,45.9775967 C82.1995927,46.9551935 83.0142566,47.7087576 83.9714868,47.7087576 L84.01222,47.7087576 C86.3340122,47.7087576 88.2892057,49.5213849 88.4928717,51.8228106 L91.2423625,84.3075356 L56.4154786,84.3075356 C55.3971487,84.3075356 54.5621181,85.1425662 54.5621181,86.1608961 L54.5621181,93.5132383 C54.5621181,96.7107943 57.1690428,99.3177189 60.3665988,99.3177189 L94.0325866,99.3177189 C97.2301426,99.3177189 99.8370672,96.7107943 99.8370672,93.5132383 L99.8370672,86.1608961 C99.8370672,85.1425662 99.0020367,84.3075356 97.9837067,84.3075356 L94.9490835,84.3075356 L92.1792261,51.5173116 C91.8737271,47.892057 89.1649695,44.9389002 85.7230143,44.2057026 L84.1547862,19.9287169 C84.0936864,18.9511202 83.2790224,18.197556 82.3217923,18.197556 L79.0631365,18.197556 L79.0631365,12.0264766 C79.0631365,9.37881874 76.9246436,7.24032587 74.2769857,7.24032587 L58.2892057,7.24032587 C55.6415479,7.24032587 53.503055,9.37881874 53.503055,12.0264766 L53.503055,18.197556 L46.395112,18.197556 L46.395112,12.0264766 C46.3747454,9.39918534 44.2362525,7.24032587 41.5885947,7.24032587 Z M41.6293279,93.5132383 C41.6293279,94.6741344 40.6720978,95.6313646 39.5112016,95.6313646 L5.82484725,95.6313646 C4.66395112,95.6313646 3.70672098,94.6741344 3.70672098,93.5132383 L3.70672098,87.99389 L41.6089613,87.99389 L41.6089613,93.5132383 L41.6293279,93.5132383 Z M96.1710794,93.5132383 C96.1710794,94.6741344 95.2138493,95.6313646 94.0529532,95.6313646 L60.3869654,95.6313646 C59.2260692,95.6313646 58.2688391,94.6741344 58.2688391,93.5132383 L58.2688391,87.99389 L96.1710794,87.99389 L96.1710794,93.5132383 Z M24.5010183,18.197556 L24.5010183,12.0264766 C24.5010183,11.4154786 24.9898167,10.9266802 25.6008147,10.9266802 L41.5885947,10.9266802 C42.1995927,10.9266802 42.688391,11.4154786 42.688391,12.0264766 L42.688391,18.197556 L24.5010183,18.197556 Z M57.1894094,12.0264766 C57.1894094,11.4154786 57.6782077,10.9266802 58.2892057,10.9266802 L74.2769857,10.9266802 C74.8879837,10.9266802 75.3767821,11.4154786 75.3767821,12.0264766 L75.3767821,18.197556 L57.1894094,18.197556 L57.1894094,12.0264766 Z" id="Shape" fill="#1A1A1A" fill-rule="nonzero"></path>
                            <path d="M21.2016293,1.98574338 C21.2016293,3.00407332 22.0366599,3.83910387 23.0549898,3.83910387 L43.9714868,3.83910387 C44.9898167,3.83910387 45.8248473,3.00407332 45.8248473,1.98574338 C45.8248473,0.967413442 44.9898167,0.132382892 43.9714868,0.132382892 L23.0549898,0.132382892 C22.0366599,0.132382892 21.2016293,0.967413442 21.2016293,1.98574338 Z" id="Shape" fill="#1A1A1A" fill-rule="nonzero"></path>
                            <path d="M55.0509165,3.81873727 L76.3747454,3.81873727 C77.3930754,3.81873727 78.2281059,2.98370672 78.2281059,1.96537678 C78.2281059,0.947046843 77.3930754,0.112016293 76.3747454,0.112016293 L55.0509165,0.112016293 C54.0325866,0.112016293 53.197556,0.947046843 53.197556,1.96537678 C53.197556,2.98370672 54.0325866,3.81873727 55.0509165,3.81873727 Z" id="Shape" fill="#1A1A1A" fill-rule="nonzero"></path>
                            <path d="M39.2464358,80.7433809 C40.2647658,80.7433809 41.0997963,79.9083503 41.0997963,78.8900204 L41.0997963,53.8594705 L57.5152749,53.8594705 L57.5152749,78.8900204 C57.5152749,79.9083503 58.3503055,80.7433809 59.3686354,80.7433809 C60.3869654,80.7433809 61.2219959,79.9083503 61.2219959,78.8900204 L61.2219959,53.8594705 L69.490835,53.8594705 C73.1364562,53.8594705 76.1099796,50.885947 76.1099796,47.2403259 L76.1099796,41.6598778 C76.1099796,38.0142566 73.1364562,35.0407332 69.490835,35.0407332 L30.7535642,35.0407332 C27.107943,35.0407332 24.1344196,38.0142566 24.1344196,41.6598778 L24.1344196,47.2403259 C24.1344196,50.885947 27.107943,53.8594705 30.7535642,53.8594705 L37.413442,53.8594705 L37.413442,78.8900204 C37.413442,79.9083503 38.2281059,80.7433809 39.2464358,80.7433809 Z M27.8004073,47.2403259 L27.8004073,41.6598778 C27.8004073,40.0509165 29.1242363,38.7270876 30.7331976,38.7270876 L69.4501018,38.7270876 C71.0590631,38.7270876 72.3828921,40.0509165 72.3828921,41.6598778 L72.3828921,47.2403259 C72.3828921,48.8492872 71.0590631,50.1731161 69.4501018,50.1731161 L30.7535642,50.1731161 C29.1242363,50.1731161 27.8004073,48.8492872 27.8004073,47.2403259 Z" id="Shape" fill="#1A1A1A" fill-rule="nonzero"></path>
                        </g>
                    </g>
                </g>
            </g>
        </g>
    </g>
</svg>