<?xml version="1.0" encoding="UTF-8"?>
<svg width="36px" height="36px" viewBox="0 0 36 36" version="1.1" xmlns="http://www.w3.org/2000/svg" xmlns:xlink="http://www.w3.org/1999/xlink">
    <!-- Generator: Sketch 49 (51002) - http://www.bohemiancoding.com/sketch -->
    <title>@2xicon/gardner</title>
    <desc>Created with Sketch.</desc>
    <defs>
        <path d="M27.5832143,34.7824286 L27.5832143,34.7728571 L14.9930714,34.7728571 L14.9930714,30.5761429 C15.8647857,30.5635714 17.3965714,30.4418571 18.2551429,29.7829286 C19.4667857,28.8536429 19.6436429,26.6731429 19.6598571,26.4255714 C19.6705,26.2654286 19.6165,26.1076429 19.5098571,25.9876429 C19.4032857,25.8676429 19.253,25.7953571 19.0926429,25.7870714 C18.8180714,25.7727143 16.3725714,25.6731429 15.1998571,26.5730714 C15.1272143,26.6286429 15.0581429,26.6887143 14.993,26.7529286 L14.993,24.5808571 C15.8647143,24.5682857 17.3965,24.4465714 18.2550714,23.7876429 C19.4667143,22.8583571 19.6435714,20.6778571 19.6597857,20.4302857 C19.6704286,20.2701429 19.6164286,20.1123571 19.5097857,19.9923571 C19.4032143,19.8723571 19.2529286,19.8000714 19.0925714,19.7917857 C18.818,19.7774286 16.3725,19.6785 15.1997857,20.5777857 C15.1271429,20.6333571 15.0580714,20.6934286 14.9929286,20.7576429 L14.9929286,18.5855714 C15.8646429,18.573 17.3964286,18.4512857 18.255,17.7923571 C19.4666429,16.8630714 19.6435,14.6825714 19.6597143,14.435 C19.6703571,14.2748571 19.6163571,14.1170714 19.5097143,13.9970714 C19.4031429,13.8770714 19.2528571,13.8047857 19.0925,13.7965 C18.8179286,13.7827143 16.3724286,13.6825714 15.1997143,14.5825 C15.1270714,14.6380714 15.058,14.6981429 14.9928571,14.7623571 L14.9928571,11.9907143 C14.9928571,11.6595714 14.7244286,11.3912143 14.3933571,11.3912143 C14.0622857,11.3912143 13.7938571,11.6596429 13.7938571,11.9907143 L13.7938571,14.7647143 C13.7287143,14.7005 13.6596429,14.6404286 13.587,14.5848571 C12.4137143,13.6855714 9.97064286,13.7845 9.69421429,13.7988571 C9.53392857,13.8071429 9.38364286,13.8794286 9.277,13.9994286 C9.17042857,14.1194286 9.11635714,14.2772143 9.127,14.4373571 C9.14321429,14.6825714 9.32007143,16.8630714 10.5317143,17.7947143 C11.3908571,18.4542143 12.9220714,18.5740714 13.7937857,18.5879286 L13.7937857,20.7636429 C13.7286429,20.6994286 13.6595714,20.6393571 13.5869286,20.5837857 C12.4136429,19.6845 9.97057143,19.7834286 9.69414286,19.7977857 C9.53385714,19.8060714 9.38357143,19.8783571 9.27692857,19.9983571 C9.17035714,20.1183571 9.11628571,20.2761429 9.12692857,20.4362857 C9.14314286,20.6815 9.32,22.862 10.5316429,23.7936429 C11.3907857,24.4531429 12.922,24.573 13.7937143,24.5868571 L13.7937143,26.7625714 C13.7285714,26.6983571 13.6595,26.6382857 13.5868571,26.5827143 C12.4135714,25.6834286 9.9705,25.7817143 9.69407143,25.7967143 C9.53378571,25.805 9.3835,25.8772857 9.27685714,25.9972857 C9.17028571,26.1172857 9.11621429,26.2750714 9.12685714,26.4352143 C9.14307143,26.6804286 9.31992857,28.8609286 10.5315714,29.7925714 C11.3907143,30.4520714 12.9219286,30.5719286 13.7936429,30.5857143 L13.7936429,34.7824286 L0.604357143,34.7824286 C0.273214286,34.7824286 0.00485714286,35.0508571 0.00485714286,35.3819286 C0.00485714286,35.7130714 0.273285714,35.9814286 0.604357143,35.9814286 L27.5832857,35.9814286 C27.9144286,35.9814286 28.1827857,35.713 28.1827857,35.3819286 C28.1827857,35.0508571 27.9143571,34.7824286 27.5832143,34.7824286 Z M15.9301429,27.5257143 C16.6857143,27.1382857 17.5276429,26.9501429 18.3762143,26.9789286 C18.2963571,27.6702857 17.9981429,28.3182143 17.5248571,28.8285 C16.7691429,29.2153571 15.9272143,29.4029286 15.0787857,29.3735 C15.159,28.6827143 15.4572143,28.0355 15.9301429,27.5257143 Z M15.9301429,21.5303571 C16.6857143,21.1429286 17.5276429,20.9547857 18.3762143,20.9835714 C18.2963571,21.6749286 17.9981429,22.3228571 17.5248571,22.8331429 C16.7691429,23.22 15.9272143,23.4075714 15.0787857,23.3781429 C15.159,22.6874286 15.4572143,22.0401429 15.9301429,21.5303571 Z M15.9301429,15.5350714 C16.6857143,15.1476429 17.5276429,14.9595 18.3762143,14.9882857 C18.2963571,15.6796429 17.9981429,16.3275714 17.5248571,16.8378571 C16.7691429,17.2247143 15.9272143,17.4122857 15.0787857,17.3828571 C15.159,16.6920714 15.4572143,16.0448571 15.9301429,15.5350714 Z M11.2622143,16.8396429 C10.7905,16.3292143 10.4928571,15.6822143 10.4120714,14.9918571 C11.2016429,15.0152143 12.3383571,15.1369286 12.8569286,15.535 C13.3287143,16.0453571 13.6261429,16.6924286 13.7064286,17.3827857 C12.9175,17.3594286 11.7807857,17.2377143 11.2622143,16.8396429 Z M11.2622143,22.8349286 C10.7905,22.3244286 10.4928571,21.6775 10.4120714,20.9871429 C11.2016429,21.0105 12.3383571,21.1322143 12.8569286,21.5302857 C13.3287143,22.0406429 13.6261429,22.6877143 13.7064286,23.3780714 C12.9175,23.3547857 11.7807857,23.2330714 11.2622143,22.8349286 Z M11.2622143,28.8302857 C10.7905,28.3197857 10.4928571,27.6728571 10.4120714,26.9825 C11.2016429,27.0058571 12.3383571,27.1275714 12.8569286,27.5256429 C13.3287143,28.036 13.6261429,28.6830714 13.7064286,29.3734286 C12.9175,29.3500714 11.7807857,29.2283571 11.2622143,28.8302857 Z M35.3771429,34.7728571 C35.7082857,34.7728571 35.9767143,35.0412857 35.9766429,35.3723571 C35.9766429,35.7034286 35.7082857,35.9718571 35.3771429,35.9718571 L29.9813571,35.9718571 C29.6502857,35.9718571 29.3818571,35.7035 29.3818571,35.3723571 C29.3818571,35.0412857 29.6502143,34.7728571 29.9813571,34.7728571 L35.3771429,34.7728571 Z M31.4316429,31.6265 C31.6566429,31.4016429 31.783,31.0965714 31.783,30.7785 C31.783,30.4604286 31.6565714,30.1553571 31.4316429,29.9304286 L26.6881429,25.1869286 C26.3852857,24.8869286 25.9458571,24.7702857 25.5340714,24.8805714 L24.2810714,23.6275714 C26.2516429,20.1986429 26.2975714,15.9917857 24.4022143,12.5207143 C22.5069286,9.04964286 18.9430714,6.81378571 14.9930714,6.61764286 L14.9930714,5.39578571 C15.8647857,5.38321429 17.3965714,5.2615 18.2551429,4.60257143 C19.4667857,3.67328571 19.6436429,1.49278571 19.6598571,1.24521429 C19.6705,1.08507143 19.6165,0.927285714 19.5098571,0.807285714 C19.4032857,0.687285714 19.253,0.615 19.0926429,0.606714286 C18.8180714,0.594142857 16.372,0.494 15.1998571,1.39392857 C15.1272143,1.4495 15.0581429,1.50957143 14.993,1.57378571 L14.993,0.5995 C14.993,0.268357143 14.7245714,0 14.3935,0 C14.0624286,0 13.794,0.268428571 13.794,0.5995 L13.794,1.575 C13.7288571,1.51078571 13.6597857,1.45071429 13.5871429,1.39514286 C12.4150714,0.494 9.97078571,0.5935 9.69442857,0.607928571 C9.53414286,0.616214286 9.38385714,0.6885 9.27721429,0.8085 C9.17064286,0.9285 9.11657143,1.08628571 9.12721429,1.24642857 C9.14342857,1.49164286 9.32028571,3.67214286 10.5319286,4.60378571 C11.3910714,5.26028571 12.9222857,5.382 13.794,5.39578571 L13.794,6.61821429 C9.81171429,6.81742857 6.22492857,9.08835714 4.34164286,12.6028571 C2.45835714,16.1172857 2.554,20.3615 4.59357143,23.7876429 C5.022,24.5170714 5.76392857,25.0071429 6.603,25.1149286 C7.44207143,25.2227143 8.28371429,24.9360714 8.88264286,24.3386429 C9.11671429,24.1045 9.11671429,23.725 8.88264286,23.4909286 C7.31664286,21.9206429 6.49242857,19.7584286 6.61578571,17.5441429 C6.77528571,14.636 8.54385714,12.0597857 11.2003571,10.8657857 C13.8568571,9.67178571 16.9575714,10.0595 19.2383571,11.8707857 C22.2565714,14.2978571 23.0560714,18.5622143 21.1220714,21.9177143 C20.4602143,23.0068571 20.4674286,24.3757857 21.1406429,25.4579286 C21.2701429,25.6624286 21.4215,25.8522143 21.5920714,26.0238571 L22.9907857,27.4219286 C22.8794286,27.8334286 22.9959286,28.2731429 23.2965714,28.5754286 L28.0406429,33.3195 C28.5088571,33.7875714 29.2678571,33.7875714 29.7361429,33.3195 L31.4316429,31.6265 Z M15.9301429,2.34535714 C16.6857143,1.95792857 17.5276429,1.76978571 18.3762143,1.79857143 C18.2963571,2.48992857 17.9981429,3.13785714 17.5248571,3.64814286 C16.7695,4.03621429 15.9275714,4.22507143 15.0787857,4.19671429 C15.1582857,3.50471429 15.4565,2.85614286 15.9301429,2.34535714 Z M11.2622143,3.64992857 C10.7905,3.13942857 10.4928571,2.4925 10.4120714,1.80214286 C11.2016429,1.8255 12.3383571,1.94721429 12.8569286,2.34528571 C13.3287143,2.85564286 13.6261429,3.50271429 13.7064286,4.19307143 C12.9175,4.16971429 11.7807857,4.04807143 11.2622143,3.64992857 Z M22.4405,25.1803571 C22.3317857,25.0712857 22.2352857,24.9506429 22.1527143,24.8206429 C21.722,24.117 21.7233571,23.2309286 22.1562857,22.5286429 C24.4701429,18.5772143 23.4454286,13.5181429 19.7764286,10.7785714 C16.1073571,8.03892857 10.9656429,8.49364286 7.83435714,11.8346429 C4.70307143,15.1756429 4.58214286,20.336 7.5535,23.82 C7.30471429,23.9267857 7.03171429,23.9645 6.76328571,23.9291429 C6.28728571,23.8703571 5.866,23.5927143 5.62414286,23.1785 C3.75407143,20.0313571 3.71714286,16.1225714 5.52735714,12.9406429 C7.33757143,9.75871429 10.7164286,7.79321429 14.3772857,7.79271429 C14.3838571,7.79271429 14.3886429,7.79628571 14.3952857,7.79628571 C14.4009286,7.79535714 14.4065714,7.79414286 14.4120714,7.79271429 C18.1185714,7.79435714 21.5312857,9.81057143 23.3211429,13.0563571 C25.111,16.3021429 24.995,20.2642143 23.0183571,23.3997143 C22.8687143,23.6365714 22.9030714,23.9455 23.1010714,24.1437143 L24.5681429,25.6107857 L23.7204286,26.4585 L22.4405,25.1803571 Z M28.8884286,32.4766429 L24.1443571,27.7325714 L25.8404286,26.0370714 L30.5839286,30.7811429 L28.8884286,32.4766429 Z" id="path-1"></path>
    </defs>
    <g id="Desktop" stroke="none" stroke-width="1" fill="none" fill-rule="evenodd">
        <g id="01-Landing-Page" transform="translate(-1171.000000, -692.000000)">
            <g id="Below-Header" transform="translate(0.000000, 659.000000)">
                <g id="6" transform="translate(1162.000000, 24.000000)">
                    <g id="icon/gardner" transform="translate(9.000000, 9.000000)">
                        <g id="color/primary-1">
                            <g>
                                <mask id="mask-2" fill="white">
                                    <use xlink:href="#path-1"></use>
                                </mask>
                                <use id="Mask" fill="#8200FF" fill-rule="nonzero" xlink:href="#path-1"></use>
                                <g mask="url(#mask-2)" fill="#8200FF" fill-rule="nonzero" id="Rectangle">
                                    <g transform="translate(-12.000000, -12.000000)">
                                        <rect x="0" y="0" width="60" height="60"></rect>
                                    </g>
                                </g>
                            </g>
                        </g>
                    </g>
                </g>
            </g>
        </g>
    </g>
</svg>