<?xml version="1.0" encoding="UTF-8"?>
<svg width="64px" height="62px" viewBox="0 0 64 62" version="1.1" xmlns="http://www.w3.org/2000/svg" xmlns:xlink="http://www.w3.org/1999/xlink">
    <!-- Generator: Sketch 49 (51002) - http://www.bohemiancoding.com/sketch -->
    <title>@2x005-like</title>
    <desc>Created with Sketch.</desc>
    <defs></defs>
    <g id="Desktop" stroke="none" stroke-width="1" fill="none" fill-rule="evenodd">
        <g id="18-Join-as-pro" transform="translate(-770.000000, -1184.000000)" fill-rule="nonzero">
            <g id="Section-1" transform="translate(82.000000, 760.000000)">
                <g id="6" transform="translate(680.000000, 415.000000)">
                    <g id="005-like" transform="translate(8.000000, 9.000000)">
                        <rect id="Rectangle-path" fill="#3EC8AA" x="41.9395918" y="45.2977633" width="20.8457143" height="15.36"></rect>
                        <path d="M12.5910204,52.7687837 L2.05061224,52.7687837 C1.56734694,52.7687837 1.1755102,52.3769469 1.1755102,51.8936816 L1.1755102,23.4593959 C1.1755102,22.9761306 1.56734694,22.5842939 2.05061224,22.5842939 L12.5779592,22.5842939 C13.0612245,22.5842939 13.4530612,22.9761306 13.4530612,23.4593959 L13.4530612,51.8936816 C13.4661224,52.3769469 13.0612245,52.7687837 12.5910204,52.7687837 Z" id="XMLID_1341_" fill="#3EC8AA"></path>
                        <path d="M44.5910204,40.1124571 L44.5910204,44.1091918 L41.9526531,44.1091918 C41.2995918,44.1091918 40.7640816,44.644702 40.7640816,45.2977633 L40.7640816,60.6577633 C40.7640816,61.3108245 41.2995918,61.8463347 41.9526531,61.8463347 L62.7983673,61.8463347 C63.4514286,61.8463347 63.9869388,61.3108245 63.9869388,60.6577633 L63.9869388,45.2977633 C63.9869388,44.644702 63.4514286,44.1091918 62.7983673,44.1091918 L60.16,44.1091918 L60.16,40.1124571 C60.16,35.8153143 56.6726531,32.3279673 52.3755102,32.3279673 C48.0783673,32.3279673 44.5910204,35.8283755 44.5910204,40.1124571 Z M61.6097959,59.4691918 L43.1281633,59.4691918 L43.1281633,46.4863347 L61.6097959,46.4863347 L61.6097959,59.4691918 Z M57.7828571,40.1124571 L57.7828571,44.1091918 L46.955102,44.1091918 L46.955102,40.1124571 C46.955102,37.1214367 49.3844898,34.692049 52.3755102,34.692049 C55.3665306,34.692049 57.7828571,37.134498 57.7828571,40.1124571 Z" id="Shape" fill="#000000"></path>
                        <path d="M52.6497959,50.404702 C51.957551,50.2610286 51.2130612,50.6528653 50.9126531,51.3189878 C50.5991837,51.9981714 50.8081633,52.7818449 51.4220408,53.2389878 C51.5395918,53.3304163 51.5787755,53.4218449 51.5787755,53.5655184 C51.5787755,54.2577633 51.5787755,54.9369469 51.5787755,55.6291918 C51.5787755,56.1908245 52.1795918,56.6218449 52.7804082,56.3214367 C53.0285714,56.1908245 53.1853061,55.9165388 53.1591837,55.6291918 C53.1591837,54.9500082 53.1591837,54.2577633 53.1591837,53.5785796 C53.1591837,53.4218449 53.1983673,53.3304163 53.3289796,53.2389878 C53.76,52.9255184 53.9820408,52.4814367 53.9689796,51.9589878 C53.9559184,51.1753143 53.4204082,50.5483755 52.6497959,50.404702 Z" id="Shape" fill="#000000"></path>
                        <path d="M0,24.3475592 L0,51.0185796 C0,52.6381714 1.31918367,53.9573551 2.93877551,53.9573551 L11.7028571,53.9573551 C12.7085714,53.9573551 13.5836735,53.4610286 14.1191837,52.6904163 C15.5559184,54.3883755 17.6979592,55.4724571 20.0881633,55.4724571 L27.9379592,55.4724571 L28.7477551,55.4724571 L35.9053061,55.4724571 C36.5583673,55.4724571 37.0938776,54.9369469 37.0938776,54.2838857 C37.0938776,53.6308245 36.5583673,53.0953143 35.9053061,53.0953143 L28.7216327,53.0953143 L27.9118367,53.0953143 L20.0620408,53.0953143 C17.0710204,53.0953143 14.6285714,50.6528653 14.6285714,47.6618449 L14.6285714,24.9614367 C14.7983673,25.0398041 14.9812245,25.092049 15.1640816,25.092049 C15.2685714,25.092049 15.3730612,25.0789878 15.477551,25.0528653 C15.595102,25.0136816 18.3771429,24.2300082 21.1853061,22.2316408 C24.9991837,19.5279673 27.0236735,15.8969469 27.0236735,11.7434776 L27.0236735,2.57449796 C28.2514286,2.35245714 30.602449,2.15653878 32.3004082,3.41041633 C33.7763265,4.49449796 34.5208163,6.53204898 34.5208163,9.44470204 L34.5208163,19.8936816 C34.5208163,20.5467429 35.0563265,21.0822531 35.7093878,21.0822531 L40.9861224,21.0822531 L47.7518367,21.0822531 L49.6326531,21.0822531 C52.6236735,21.0822531 55.0661224,23.524702 55.0661224,26.5157224 C55.0661224,26.5418449 55.0791837,26.5810286 55.0791837,26.607151 L54.8832653,27.8740898 C54.7787755,28.5140898 55.2228571,29.1279673 55.8628571,29.2324571 C55.9281633,29.2455184 55.9934694,29.2455184 56.0457143,29.2455184 C56.6204082,29.2455184 57.1167347,28.8275592 57.2081633,28.2528653 L57.4171429,26.9467429 C57.4302041,26.8422531 57.4302041,26.7377633 57.4171429,26.6332735 C57.4171429,26.5940898 57.4302041,26.5549061 57.4302041,26.5157224 C57.4302041,22.2185796 53.9297959,18.7181714 49.6326531,18.7181714 L47.7518367,18.7181714 L40.9861224,18.7181714 L36.884898,18.7181714 L36.884898,9.44470204 C36.884898,5.73531429 35.8138776,3.05776327 33.684898,1.50347755 C30.315102,-0.965093878 25.6653061,0.445518367 25.4693878,0.51082449 C24.9730612,0.667559184 24.6465306,1.12470204 24.6465306,1.6340898 L24.6465306,11.7434776 C24.6465306,19.9067429 15.242449,22.6626612 14.837551,22.767151 C14.6416327,22.8193959 14.4587755,22.9369469 14.3281633,23.0675592 C13.8579592,22.0879673 12.8391837,21.3957224 11.6767347,21.3957224 L2.93877551,21.3957224 C1.31918367,21.4087837 0,22.7279673 0,24.3475592 Z M2.36408163,24.3475592 C2.36408163,24.0340898 2.62530612,23.7728653 2.93877551,23.7728653 L11.7028571,23.7728653 C12.0163265,23.7728653 12.277551,24.0340898 12.277551,24.3475592 L12.277551,51.0185796 C12.277551,51.332049 12.0163265,51.5932735 11.7028571,51.5932735 L2.93877551,51.5932735 C2.62530612,51.5932735 2.36408163,51.332049 2.36408163,51.0185796 L2.36408163,24.3475592 Z" id="Shape" fill="#000000"></path>
                    </g>
                </g>
            </g>
        </g>
    </g>
</svg>