<?xml version="1.0" encoding="UTF-8"?>
<svg width="70px" height="100px" viewBox="0 0 70 100" version="1.1" xmlns="http://www.w3.org/2000/svg" xmlns:xlink="http://www.w3.org/1999/xlink">
    <!-- Generator: Sketch 49 (51002) - http://www.bohemiancoding.com/sketch -->
    <title>@2xlist</title>
    <desc>Created with Sketch.</desc>
    <defs></defs>
    <g id="Desktop" stroke="none" stroke-width="1" fill="none" fill-rule="evenodd">
        <g id="18-Join-as-pro" transform="translate(-685.000000, -1585.000000)" fill-rule="nonzero">
            <g id="Section-2" transform="translate(0.000000, 1363.000000)">
                <g id="2" transform="translate(560.000000, 212.000000)">
                    <g id="list" transform="translate(125.000000, 10.000000)">
                        <rect id="XMLID_393_" fill="#42E695" x="2" y="74" width="24" height="24"></rect>
                        <path d="M68.1262729,11.6159625 L42.1995927,11.6159625 L46.6395112,7.15584208 C47.3523422,6.4397677 47.3523422,5.25313016 46.6395112,4.53705578 C45.9266802,3.82098141 44.7454175,3.82098141 44.0325866,4.53705578 L36.4358452,12.1479035 C35.7230143,12.8639778 35.7230143,14.0506154 36.4358452,14.7666898 L44.0325866,22.3979967 C44.3991853,22.7662635 44.8676171,22.9503969 45.3360489,22.9503969 C45.8044807,22.9503969 46.2729124,22.7662635 46.6395112,22.3979967 C47.3523422,21.6819223 47.3523422,20.4952848 46.6395112,19.7792104 L42.1995927,15.31909 L66.2729124,15.31909 L66.2729124,84.2463637 L27.6578411,84.2463637 L27.6578411,74.0781075 C27.6578411,73.0551441 26.8228106,72.2163141 25.8044807,72.2163141 L1.85336049,72.2163141 C0.83503055,72.2163141 0,73.0551441 0,74.0781075 L0,98.1382066 C0,99.16117 0.83503055,100 1.85336049,100 L25.8044807,100 C26.8228106,100 27.6578411,99.16117 27.6578411,98.1382066 L27.6578411,87.9699505 L68.1466395,87.9699505 C69.1649695,87.9699505 70,87.1311205 70,86.1081571 L70,13.4777559 C69.9796334,12.4343332 69.1446029,11.6159625 68.1262729,11.6159625 Z M23.9511202,96.2764132 L3.68635438,96.2764132 L3.68635438,75.9194416 L23.9511202,75.9194416 L23.9511202,96.2764132 Z" id="Shape" fill="#000000"></path>
                        <path d="M0,37.8762887 L0,62.1237113 C0,63.1546392 0.845360825,64 1.87628866,64 L26.1237113,64 C27.1546392,64 28,63.1546392 28,62.1237113 L28,37.8762887 C28,36.8453608 27.1546392,36 26.1237113,36 L1.87628866,36 C0.845360825,36 0,36.8453608 0,37.8762887 Z M3.73195876,39.7525773 L24.2474227,39.7525773 L24.2474227,60.2680412 L3.73195876,60.2680412 C3.73195876,60.2680412 3.73195876,39.7525773 3.73195876,39.7525773 Z" id="Shape" fill="#000000"></path>
                        <g id="Group" fill="#000000">
                            <path d="M26.0072993,24.2323529 C25.5167883,24.2323529 25.0467153,24.4382353 24.6992701,24.7882353 C24.3518248,25.1382353 24.1474453,25.6117647 24.1474453,26.1058824 C24.1474453,26.6 24.3518248,27.0735294 24.6992701,27.4235294 C25.0467153,27.7735294 25.5167883,27.9794118 26.0072993,27.9794118 C26.4978102,27.9794118 26.9678832,27.7735294 27.3153285,27.4235294 C27.6627737,27.0735294 27.8671533,26.6 27.8671533,26.1058824 C27.8671533,25.6117647 27.6627737,25.1382353 27.3153285,24.7882353 C26.9678832,24.4382353 26.4978102,24.2323529 26.0072993,24.2323529 Z" id="Shape"></path>
                            <path d="M19.9985401,24.2323529 C18.9766423,24.2323529 18.1386861,25.0764706 18.1386861,26.1058824 C18.1386861,27.1352941 18.9562044,27.9794118 19.9985401,27.9794118 C21.020438,27.9794118 21.8583942,27.1352941 21.8583942,26.1058824 C21.8583942,25.0764706 21.020438,24.2323529 19.9985401,24.2323529 Z" id="Shape"></path>
                            <path d="M7.9810219,24.2323529 C6.95912409,24.2323529 6.12116788,25.0764706 6.12116788,26.1058824 C6.12116788,27.1352941 6.95912409,27.9794118 7.9810219,27.9794118 C9.00291971,27.9794118 9.84087591,27.1352941 9.84087591,26.1058824 C9.82043796,25.0764706 9.00291971,24.2323529 7.9810219,24.2323529 Z" id="Shape"></path>
                            <path d="M13.989781,24.2323529 C12.9678832,24.2323529 12.129927,25.0764706 12.129927,26.1058824 C12.129927,27.1352941 12.9474453,27.9794118 13.989781,27.9794118 C15.0116788,27.9794118 15.849635,27.1352941 15.849635,26.1058824 C15.8291971,25.0764706 15.0116788,24.2323529 13.989781,24.2323529 Z" id="Shape"></path>
                            <path d="M1.97226277,24.2323529 C1.48175182,24.2323529 1.01167883,24.4382353 0.664233577,24.7882353 C0.316788321,25.1382353 0.112408759,25.6117647 0.112408759,26.1058824 C0.112408759,26.6 0.316788321,27.0735294 0.664233577,27.4235294 C1.01167883,27.7735294 1.48175182,27.9794118 1.97226277,27.9794118 C2.46277372,27.9794118 2.93284672,27.7735294 3.28029197,27.4235294 C3.62773723,27.0735294 3.83211679,26.6 3.83211679,26.1058824 C3.83211679,25.6117647 3.62773723,25.1382353 3.28029197,24.7882353 C2.93284672,24.4382353 2.46277372,24.2323529 1.97226277,24.2323529 Z" id="Shape"></path>
                            <path d="M1.97226277,18.1794118 C0.950364964,18.1794118 0.112408759,19.0029412 0.112408759,20.0529412 C0.112408759,21.0823529 0.950364964,21.9264706 1.97226277,21.9264706 C2.99416058,21.9264706 3.83211679,21.0823529 3.83211679,20.0529412 C3.81167883,19.0235294 2.99416058,18.1794118 1.97226277,18.1794118 Z" id="Shape"></path>
                            <path d="M1.97226277,6.07352941 C0.950364964,6.07352941 0.112408759,6.91764706 0.112408759,7.94705882 C0.112408759,8.97647059 0.950364964,9.82058824 1.97226277,9.82058824 C2.99416058,9.82058824 3.83211679,8.97647059 3.83211679,7.94705882 C3.81167883,6.89705882 2.99416058,6.07352941 1.97226277,6.07352941 Z" id="Shape"></path>
                            <path d="M1.97226277,12.1264706 C0.950364964,12.1264706 0.112408759,12.95 0.112408759,13.9794118 C0.112408759,15.0088235 0.950364964,15.8529412 1.97226277,15.8529412 C2.99416058,15.8529412 3.83211679,15.0088235 3.83211679,13.9794118 C3.81167883,12.9705882 2.99416058,12.1264706 1.97226277,12.1264706 Z" id="Shape"></path>
                            <path d="M1.97226277,0.0205882353 C1.48175182,0.0205882353 1.01167883,0.226470588 0.664233577,0.576470588 C0.316788321,0.926470588 0.112408759,1.4 0.112408759,1.89411765 C0.112408759,2.38823529 0.316788321,2.86176471 0.664233577,3.21176471 C1.01167883,3.56176471 1.48175182,3.76764706 1.97226277,3.76764706 C2.46277372,3.76764706 2.93284672,3.56176471 3.28029197,3.21176471 C3.62773723,2.86176471 3.81167883,2.38823529 3.81167883,1.89411765 C3.81167883,1.4 3.60729927,0.926470588 3.25985401,0.576470588 C2.93284672,0.226470588 2.44233577,0.0205882353 1.97226277,0.0205882353 Z" id="Shape"></path>
                            <path d="M19.9985401,0.0205882353 C18.9766423,0.0205882353 18.1386861,0.844117647 18.1386861,1.89411765 C18.1386861,2.92352941 18.9562044,3.76764706 19.9985401,3.76764706 C21.020438,3.76764706 21.8583942,2.92352941 21.8583942,1.89411765 C21.8583942,0.844117647 21.020438,0.0205882353 19.9985401,0.0205882353 Z" id="Shape"></path>
                            <path d="M7.9810219,0.0205882353 C6.95912409,0.0205882353 6.12116788,0.844117647 6.12116788,1.89411765 C6.12116788,2.92352941 6.93868613,3.76764706 7.9810219,3.76764706 C9.00291971,3.76764706 9.84087591,2.92352941 9.84087591,1.89411765 C9.82043796,0.844117647 9.00291971,0.0205882353 7.9810219,0.0205882353 Z" id="Shape"></path>
                            <path d="M13.989781,0.0205882353 C12.9678832,0.0205882353 12.129927,0.844117647 12.129927,1.89411765 C12.129927,2.92352941 12.9474453,3.76764706 13.989781,3.76764706 C15.0116788,3.76764706 15.849635,2.92352941 15.849635,1.89411765 C15.8291971,0.844117647 15.0116788,0.0205882353 13.989781,0.0205882353 Z" id="Shape"></path>
                            <path d="M26.0072993,3.74705882 C26.4978102,3.74705882 26.9678832,3.54117647 27.3153285,3.19117647 C27.6627737,2.84117647 27.8671533,2.36764706 27.8671533,1.87352941 C27.8671533,1.37941176 27.6627737,0.905882353 27.3153285,0.555882353 C26.9678832,0.205882353 26.4978102,-8.8817842e-16 26.0072993,-8.8817842e-16 C25.5167883,-8.8817842e-16 25.0467153,0.205882353 24.6992701,0.555882353 C24.3518248,0.905882353 24.1474453,1.37941176 24.1474453,1.87352941 C24.1474453,2.36764706 24.3518248,2.84117647 24.6992701,3.19117647 C25.0467153,3.56176471 25.5167883,3.74705882 26.0072993,3.74705882 Z" id="Shape"></path>
                            <path d="M26.0072993,18.1794118 C24.9854015,18.1794118 24.1474453,19.0029412 24.1474453,20.0323529 C24.1474453,21.0617647 24.9649635,21.9058824 26.0072993,21.9058824 C27.0291971,21.9058824 27.8671533,21.0617647 27.8671533,20.0323529 C27.8671533,19.0235294 27.0291971,18.1794118 26.0072993,18.1794118 Z" id="Shape"></path>
                            <path d="M26.0072993,6.07352941 C24.9854015,6.07352941 24.1474453,6.91764706 24.1474453,7.94705882 C24.1474453,8.97647059 24.9649635,9.82058824 26.0072993,9.82058824 C27.0291971,9.82058824 27.8671533,8.97647059 27.8671533,7.94705882 C27.8671533,6.89705882 27.0291971,6.07352941 26.0072993,6.07352941 Z" id="Shape"></path>
                            <path d="M26.0072993,12.1264706 C24.9854015,12.1264706 24.1474453,12.95 24.1474453,14 C24.1474453,15.0294118 24.9649635,15.8735294 26.0072993,15.8735294 C27.0291971,15.8735294 27.8671533,15.0294118 27.8671533,14 C27.8671533,12.9705882 27.0291971,12.1264706 26.0072993,12.1264706 Z" id="Shape"></path>
                        </g>
                    </g>
                </g>
            </g>
        </g>
    </g>
</svg>