<?xml version="1.0" encoding="UTF-8"?>
<svg width="35px" height="36px" viewBox="0 0 35 36" version="1.1" xmlns="http://www.w3.org/2000/svg" xmlns:xlink="http://www.w3.org/1999/xlink">
    <!-- Generator: Sketch 49 (51002) - http://www.bohemiancoding.com/sketch -->
    <title>@2xicon/movers</title>
    <desc>Created with Sketch.</desc>
    <defs>
        <path d="M34.5711045,7.49713433 L17.7947463,0.0594626866 C17.6163582,-0.0197910448 17.4127164,-0.0197910448 17.2343284,0.0594626866 L0.458149254,7.49713433 C0.173373134,7.62340299 0.0519402985,7.88274627 0.0519402985,8.21265672 L0.0519402985,27.5789552 C0.0519402985,27.8416119 0.205164179,28.0801791 0.444089552,28.1892537 L17.2355821,35.8639701 C17.3246866,35.9046269 17.4196119,35.9247761 17.5145373,35.9247761 C17.6212836,35.9247761 17.6965075,35.9127761 17.7928657,35.8627164 C17.7930448,35.8631642 34.5851642,28.1891642 34.5851642,28.1891642 C34.824,28.0799104 34.9773134,27.8413433 34.9773134,27.5788657 L34.9773134,8.21265672 C34.9773134,7.90020896 34.8559701,7.62331343 34.5711045,7.49713433 Z M10.222209,12.1007463 C9.99008955,12.2124179 9.84232836,12.4474925 9.84232836,12.7051343 L9.84232836,19.2521194 L6.56319403,17.7048358 L6.56319403,11.2260896 L22.3801791,3.60510448 L25.2309851,4.86895522 L10.222209,12.1007463 Z M17.5146269,1.44797015 L20.7700299,2.89119403 L6.22898507,9.89758209 L2.40214925,8.14844776 L17.5146269,1.44797015 Z M16.8437015,34.2092239 L1.3940597,27.1477612 L1.3940597,9.16316418 L5.22107463,10.9123881 L5.22107463,18.1301194 C5.22107463,18.3899104 5.37089552,18.6262388 5.6058806,18.7369254 L10.2271343,20.9178806 C10.3180299,20.9607761 10.4156418,20.9821791 10.5131642,20.9821791 C10.6386269,20.9821791 10.7633731,20.9469851 10.8725373,20.8779403 C11.0667761,20.7546269 11.1843582,20.5408657 11.1843582,20.3109851 L11.1843582,13.6379104 L16.8437015,16.2245373 L16.8437015,34.2092239 Z M17.5146269,15.0558806 L12.2115224,12.6318806 L26.8411343,5.58313433 L32.6271045,8.14844776 L17.5146269,15.0558806 Z M33.635194,27.1477612 L18.1857313,34.2093134 L18.1857313,16.2246269 L33.635194,9.16307463 L33.635194,27.1477612 Z" id="path-1"></path>
    </defs>
    <g id="Desktop" stroke="none" stroke-width="1" fill="none" fill-rule="evenodd">
        <g id="01-Landing-Page" transform="translate(-955.000000, -692.000000)">
            <g id="Below-Header" transform="translate(0.000000, 659.000000)">
                <g id="5" transform="translate(946.000000, 24.000000)">
                    <g id="icon/movers" transform="translate(9.000000, 9.000000)">
                        <g id="color/primary-1">
                            <g>
                                <mask id="mask-2" fill="white">
                                    <use xlink:href="#path-1"></use>
                                </mask>
                                <use id="Mask" fill="#8200FF" fill-rule="nonzero" xlink:href="#path-1"></use>
                                <g mask="url(#mask-2)" fill="#8200FF" fill-rule="nonzero" id="Rectangle">
                                    <g transform="translate(-12.000000, -12.000000)">
                                        <rect x="0" y="0" width="60" height="60"></rect>
                                    </g>
                                </g>
                            </g>
                        </g>
                    </g>
                </g>
            </g>
        </g>
    </g>
</svg>