<?xml version="1.0" encoding="UTF-8"?>
<svg width="34px" height="36px" viewBox="0 0 34 36" version="1.1" xmlns="http://www.w3.org/2000/svg" xmlns:xlink="http://www.w3.org/1999/xlink">
    <!-- Generator: Sketch 49 (51002) - http://www.bohemiancoding.com/sketch -->
    <title>@2xicon/painters</title>
    <desc>Created with Sketch.</desc>
    <defs>
        <path d="M30.5450526,4.24301754 L30.5450526,1.79649123 C30.5450526,0.77845614 29.7665965,0 28.7485614,0 L2.99880702,0 C1.98077193,0 1.20231579,0.77845614 1.20231579,1.79649123 L1.20231579,4.19178947 L0.603508772,4.19178947 C0.244210526,4.19178947 0.00470175439,4.43129825 0.00470175439,4.79059649 C0.00470175439,5.14989474 0.244210526,5.38947368 0.603508772,5.38947368 L1.20231579,5.38947368 L1.20231579,7.78477193 C1.20231579,8.59115789 1.69094737,9.24673684 2.4,9.48470175 L2.4,13.1742456 C2.4,14.4916491 3.47789474,15.5695439 4.79529825,15.5695439 C5.21445614,15.5695439 5.63368421,15.4497544 5.99298246,15.2701053 L5.99298246,17.9649123 C5.99298246,19.2823158 7.07087719,20.3602105 8.3882807,20.3602105 C9.70568421,20.3602105 10.7835789,19.2823158 10.7835789,17.9649123 L10.7835789,13.5934737 C11.0830175,13.7132632 11.382386,13.7731228 11.6818246,13.7731228 C12.8195789,13.7731228 13.7777544,12.8150175 13.7777544,11.677193 L13.7777544,9.58126316 L28.7484912,9.58126316 C29.7665263,9.58126316 30.5449825,8.80280702 30.5449825,7.78477193 L30.5449825,5.46582456 C31.5750877,5.73347368 32.3414737,6.67396491 32.3414737,7.78484211 L32.3414737,10.1801404 C32.3414737,11.3178947 31.5030877,12.3359298 30.425193,12.5754386 C29.9461053,12.6952281 22.3409825,13.3538947 17.3706667,13.7731228 C16.0532632,13.7731228 14.9753684,14.8510175 14.9753684,16.1684211 L14.9753684,19.7614035 L11.382386,19.7614035 C11.2027368,19.7614035 11.0230877,19.881193 10.9032982,20.0009123 C10.7835088,20.1206316 10.7236491,20.3003509 10.7835088,20.48 L11.3823158,23.4741754 C11.4421754,23.773614 11.6817544,23.9532632 11.9811228,23.9532632 L12.5799298,23.9532632 L12.5799298,32.9357193 C12.5799298,34.6124211 13.8973333,35.9298947 15.5741053,35.9298947 C17.250807,35.9298947 18.5682807,34.6124912 18.5682807,32.9357193 L18.5682807,23.9532632 L19.1670877,23.9532632 C19.4665263,23.9532632 19.7060351,23.773614 19.7658947,23.4741754 L20.3647018,20.48 C20.4245614,20.3003509 20.3647018,20.1207018 20.2449123,20.0009123 C20.1251228,19.8212632 19.9454737,19.7614035 19.7658246,19.7614035 L16.1728421,19.7614035 L16.1728421,16.1684211 C16.1728421,15.5096842 16.7117895,14.9707368 17.430386,14.9707368 C19.5263158,14.7910877 30.125614,13.8928421 30.6645614,13.7730526 C32.3412632,13.4137544 33.5389474,11.9167018 33.5389474,10.1800702 L33.5389474,7.78477193 C33.5391579,6.01263158 32.2385965,4.53038596 30.5450526,4.24301754 Z M12.5801404,11.677193 C12.5801404,12.1562807 12.1609825,12.5754386 11.6818947,12.5754386 C11.202807,12.5754386 10.7836491,12.1562807 10.7836491,11.677193 L10.7836491,10.7789474 C10.7836491,10.4196491 10.5441404,10.1801404 10.1848421,10.1801404 C9.82554386,10.1801404 9.58603509,10.4196491 9.58603509,10.7789474 L9.58603509,11.677193 L9.58603509,11.9766316 L9.58603509,17.9649123 C9.58603509,18.6236491 9.04708772,19.1625965 8.38835088,19.1625965 C7.72961404,19.1625965 7.19066667,18.6236491 7.19066667,17.9649123 L7.19066667,13.1742456 L7.19066667,11.3777544 C7.19066667,11.0184561 6.95115789,10.7789474 6.59185965,10.7789474 C6.2325614,10.7789474 5.99305263,11.0184561 5.99305263,11.3777544 L5.99305263,13.1742456 C5.99305263,13.8329825 5.45410526,14.3719298 4.79536842,14.3719298 C4.13663158,14.3719298 3.59768421,13.8329825 3.59768421,13.1742456 L3.59768421,9.58126316 L12.5801404,9.58126316 L12.5801404,11.677193 Z M29.3473684,7.78477193 C29.3473684,8.14407018 29.1078596,8.38357895 28.7485614,8.38357895 L13.1789474,8.38357895 L2.99880702,8.38357895 C2.63950877,8.38357895 2.4,8.14407018 2.4,7.78477193 L2.4,1.79649123 C2.4,1.49705263 2.6994386,1.19768421 2.99880702,1.19768421 L28.7484912,1.19768421 C29.1077895,1.19768421 29.3472982,1.43719298 29.3472982,1.79649123 L29.3472982,7.78477193 L29.3473684,7.78477193 Z M18.6882105,22.7555789 L17.969614,22.7555789 C17.6103158,22.7555789 17.370807,22.9950877 17.370807,23.354386 L17.370807,32.9356491 C17.370807,33.9536842 16.5923509,34.7321404 15.5743158,34.7321404 C14.5562807,34.7321404 13.7778246,33.9536842 13.7778246,32.9356491 L14.9754386,32.9356491 C15.3347368,32.9356491 15.5742456,32.6961404 15.5742456,32.3368421 C15.5742456,31.9775439 15.3347368,31.7380351 14.9754386,31.7380351 L13.7777544,31.7380351 L13.7777544,30.5403509 L14.9754386,30.5403509 C15.3347368,30.5403509 15.5742456,30.3008421 15.5742456,29.9415439 C15.5742456,29.5822456 15.3347368,29.3427368 14.9754386,29.3427368 L13.7777544,29.3427368 L13.7777544,23.354386 C13.7777544,22.9950877 13.5382456,22.7555789 13.1789474,22.7555789 L12.4603509,22.7555789 L12.1010526,20.9590877 L19.0475088,20.9590877 L18.6882105,22.7555789 Z M7.60982456,2.57494737 C7.84933333,2.81452632 7.90926316,3.17382456 7.66968421,3.41333333 L4.67550877,7.00631579 C4.5557193,7.12610526 4.37607018,7.18596491 4.19642105,7.18596491 C4.07663158,7.18596491 3.89698246,7.12603509 3.83712281,7.06617544 C3.59761404,6.82659649 3.53775439,6.46729825 3.77726316,6.22778947 L6.7714386,2.63480702 C7.01101754,2.39529825 7.37031579,2.3354386 7.60982456,2.57494737 Z M11.801614,2.57494737 C12.041193,2.81452632 12.1010526,3.17382456 11.8614737,3.41333333 L8.86729825,7.00631579 C8.74750877,7.12610526 8.56785965,7.18596491 8.38821053,7.18596491 C8.26842105,7.18596491 8.08877193,7.12603509 8.02891228,7.06617544 C7.78940351,6.82659649 7.72954386,6.46729825 7.96905263,6.22778947 L10.9632281,2.63480702 C11.202807,2.39529825 11.5621053,2.3354386 11.801614,2.57494737 Z M15.9934737,2.57494737 C16.2329825,2.81452632 16.2928421,3.17382456 16.0533333,3.41333333 L13.0591579,7.00631579 C12.9393684,7.12610526 12.7597193,7.18596491 12.5800702,7.18596491 C12.4602807,7.18596491 12.2806316,7.12603509 12.2207719,7.06617544 C11.9812632,6.82659649 11.9214035,6.46729825 12.1609123,6.22778947 L15.1550877,2.63480702 C15.3946667,2.39529825 15.7539649,2.3354386 15.9934737,2.57494737 Z M20.1852632,2.57494737 C20.4247719,2.81452632 20.4847018,3.17382456 20.2451228,3.41333333 L17.2509474,7.00631579 C17.1311579,7.12610526 16.9515088,7.18596491 16.7718596,7.18596491 C16.6520702,7.18596491 16.4724211,7.12603509 16.4125614,7.06617544 C16.1730526,6.82659649 16.113193,6.46729825 16.3527018,6.22778947 L19.3468772,2.63480702 C19.5864561,2.39529825 19.9457544,2.3354386 20.1852632,2.57494737 Z M24.3770526,2.57494737 C24.6166316,2.81452632 24.6764912,3.17382456 24.4369123,3.41333333 L21.4427368,7.00631579 C21.3229474,7.12610526 21.1432982,7.18596491 20.9636491,7.18596491 C20.8438596,7.18596491 20.6642105,7.12603509 20.6043509,7.06617544 C20.3648421,6.82659649 20.3049825,6.46729825 20.5444912,6.22778947 L23.5386667,2.63480702 C23.7782456,2.39529825 24.1375439,2.3354386 24.3770526,2.57494737 Z M27.1317193,2.63487719 C27.3712281,2.39529825 27.7305965,2.3354386 27.9701053,2.57501754 C28.209614,2.81459649 28.2694737,3.17389474 28.0299649,3.41340351 L25.0357895,7.00638596 C24.916,7.12617544 24.7363509,7.18603509 24.5567018,7.18603509 C24.4369123,7.18603509 24.2572632,7.12610526 24.1974035,7.06624561 C23.9578947,6.82666667 23.8980351,6.46736842 24.1375439,6.22785965 L27.1317193,2.63487719 Z" id="path-1"></path>
    </defs>
    <g id="Desktop" stroke="none" stroke-width="1" fill="none" fill-rule="evenodd">
        <g id="01-Landing-Page" transform="translate(-524.000000, -692.000000)">
            <g id="Below-Header" transform="translate(0.000000, 659.000000)">
                <g id="3" transform="translate(514.000000, 24.000000)">
                    <g id="icon/painters" transform="translate(10.000000, 9.000000)">
                        <g id="color/primary-1">
                            <g>
                                <mask id="mask-2" fill="white">
                                    <use xlink:href="#path-1"></use>
                                </mask>
                                <use id="Mask" fill="#8200FF" fill-rule="nonzero" xlink:href="#path-1"></use>
                                <g mask="url(#mask-2)" fill="#8200FF" fill-rule="nonzero" id="Rectangle">
                                    <g transform="translate(-13.000000, -12.000000)">
                                        <rect x="0" y="0" width="60" height="60"></rect>
                                    </g>
                                </g>
                            </g>
                        </g>
                    </g>
                </g>
            </g>
        </g>
    </g>
</svg>