<?xml version="1.0" encoding="UTF-8"?>
<svg width="40px" height="64px" viewBox="0 0 40 64" version="1.1" xmlns="http://www.w3.org/2000/svg" xmlns:xlink="http://www.w3.org/1999/xlink">
    <!-- Generator: Sketch 49 (51002) - http://www.bohemiancoding.com/sketch -->
    <title>@2x003-smartphone</title>
    <desc>Created with Sketch.</desc>
    <defs></defs>
    <g id="Desktop" stroke="none" stroke-width="1" fill="none" fill-rule="evenodd">
        <g id="18-Join-as-pro" transform="translate(-102.000000, -1051.000000)" fill-rule="nonzero">
            <g id="Section-1" transform="translate(82.000000, 760.000000)">
                <g id="3" transform="translate(0.000000, 283.000000)">
                    <g id="003-smartphone" transform="translate(20.000000, 8.000000)">
                        <path d="M1.32682927,53.8926829 L37.5284553,53.8926829 L37.5284553,60.1365854 C37.5284553,61.2682927 36.6178862,62.1788618 35.4861789,62.1788618 L3.36910569,62.1788618 C2.23739837,62.1788618 1.32682927,61.2682927 1.32682927,60.1365854 C1.32682927,60.1365854 1.32682927,53.8926829 1.32682927,53.8926829 Z" id="Shape" fill="#3EC8AA"></path>
                        <path d="M37.697561,9.44390244 L1.49593496,9.44390244 L1.49593496,3.81138211 C1.49593496,2.35447154 2.6796748,1.17073171 4.13658537,1.17073171 L35.0569106,1.17073171 C36.5138211,1.17073171 37.697561,2.35447154 37.697561,3.81138211 L37.697561,9.44390244 Z" id="Shape" fill="#3EC8AA"></path>
                        <path d="M17.1186992,59.4731707 L22.3609756,59.4731707 C23.0113821,59.4731707 23.5447154,58.9398374 23.5447154,58.2894309 C23.5447154,57.6390244 23.0113821,57.1056911 22.3609756,57.1056911 L17.1186992,57.1056911 C16.4682927,57.1056911 15.9349593,57.6390244 15.9349593,58.2894309 C15.9349593,58.9398374 16.4682927,59.4731707 17.1186992,59.4731707 Z" id="Shape" fill="#000000"></path>
                        <path d="M39.1284553,56.9756098 L39.1284553,6.71219512 C39.1284553,3.00487805 36.097561,0 32.3642276,0 L6.9203252,0 C3.14796748,0 0.0910569106,3.01788618 0.0910569106,6.71219512 L0.0910569106,48.9886179 C0.0910569106,49.6390244 0.624390244,50.1723577 1.27479675,50.1723577 C1.92520325,50.1723577 2.45853659,49.6390244 2.45853659,48.9886179 L2.45853659,11.004878 L36.7869919,11.004878 L36.7869919,52.396748 L1.83414634,52.396748 L1.53495935,52.3186992 C1.18373984,52.2276423 0.806504065,52.3186992 0.533333333,52.5398374 C0.247154472,52.7609756 0.0780487805,53.099187 0.0780487805,53.4634146 L0.0780487805,56.9626016 C0.0780487805,60.7349593 3.21300813,63.9219512 6.90731707,63.9219512 L32.3512195,63.9219512 C36.0195122,63.9219512 39.1284553,60.7479675 39.1284553,56.9756098 Z M36.7609756,56.9756098 C36.7609756,59.4211382 34.7056911,61.5674797 32.3512195,61.5674797 L6.9203252,61.5674797 C4.5398374,61.5674797 2.44552846,59.4211382 2.44552846,56.9756098 L2.44552846,54.7642276 L36.7739837,54.7642276 L36.7739837,56.9756098 L36.7609756,56.9756098 Z M2.44552846,8.63739837 L2.44552846,6.71219512 C2.44552846,4.34471545 4.50081301,2.35447154 6.9203252,2.35447154 L32.3512195,2.35447154 C34.7837398,2.35447154 36.7609756,4.30569106 36.7609756,6.71219512 L36.7609756,8.63739837 L2.44552846,8.63739837 Z" id="Shape" fill="#000000"></path>
                        <path d="M26.1593496,42.5756098 C26.1593496,41.9252033 25.6260163,41.3918699 24.9756098,41.3918699 L14.4910569,41.3918699 C13.8406504,41.3918699 13.3073171,41.9252033 13.3073171,42.5756098 C13.3073171,43.2260163 13.8406504,43.7593496 14.4910569,43.7593496 L24.9756098,43.7593496 C25.6260163,43.7463415 26.1593496,43.2260163 26.1593496,42.5756098 Z" id="Shape" fill="#000000"></path>
                        <path d="M16.3252033,45.5804878 C15.6747967,45.5804878 15.1414634,46.1138211 15.1414634,46.7642276 C15.1414634,47.4146341 15.6747967,47.9479675 16.3252033,47.9479675 L23.401626,47.9479675 C24.0520325,47.9479675 24.5853659,47.4146341 24.5853659,46.7642276 C24.5853659,46.1138211 24.0520325,45.5804878 23.401626,45.5804878 L16.3252033,45.5804878 Z" id="Shape" fill="#000000"></path>
                        <path d="M9.05365854,34.5105691 C8.29918699,35.1349593 7.85691057,36.0585366 7.85691057,37.0471545 L7.85691057,40.0260163 C7.85691057,40.6764228 8.3902439,41.2097561 9.04065041,41.2097561 C9.69105691,41.2097561 10.2243902,40.6764228 10.2243902,40.0260163 L10.2243902,37.0471545 C10.2243902,36.7739837 10.3414634,36.5138211 10.5626016,36.3317073 C13.1512195,34.198374 15.9739837,32.7804878 16.5073171,32.5203252 C16.9756098,32.2861789 17.2747967,31.804878 17.2747967,31.2845528 L17.2747967,27.095935 C17.2747967,26.7056911 17.0796748,26.3284553 16.7544715,26.1203252 C16.5333333,25.9772358 16.403252,25.7300813 16.403252,25.4699187 L16.403252,21.1252033 C16.403252,19.6162602 17.6260163,18.3934959 19.1349593,18.3934959 L20.0715447,18.3934959 C21.5804878,18.3934959 22.803252,19.6162602 22.803252,21.1252033 L22.803252,25.4699187 C22.803252,25.7300813 22.6731707,25.9772358 22.4520325,26.1203252 C22.1268293,26.3414634 21.9317073,26.7056911 21.9317073,27.095935 L21.9317073,31.2845528 C21.9317073,31.804878 22.2308943,32.2861789 22.699187,32.5203252 C23.2325203,32.7804878 26.0552846,34.198374 28.6439024,36.3317073 C28.8520325,36.500813 28.9821138,36.7609756 28.9821138,37.0471545 L28.9821138,40.0260163 C28.9821138,40.6764228 29.5154472,41.2097561 30.1658537,41.2097561 C30.8162602,41.2097561 31.3495935,40.6764228 31.3495935,40.0260163 L31.3495935,37.0471545 C31.3495935,36.0585366 30.9203252,35.1349593 30.1528455,34.5105691 C27.8764228,32.6373984 25.4308943,31.2715447 24.299187,30.6861789 L24.299187,27.6422764 C24.8585366,27.0699187 25.1707317,26.2894309 25.1707317,25.4699187 L25.1707317,21.1252033 C25.1707317,18.3154472 22.8943089,16.0390244 20.0845528,16.0390244 L19.1479675,16.0390244 C16.3382114,16.0390244 14.0617886,18.3154472 14.0617886,21.1252033 L14.0617886,25.4699187 C14.0617886,26.2894309 14.3739837,27.0569106 14.9333333,27.6422764 L14.9333333,30.6861789 C13.7756098,31.2715447 11.3430894,32.6373984 9.05365854,34.5105691 Z" id="Shape" fill="#000000"></path>
                    </g>
                </g>
            </g>
        </g>
    </g>
</svg>