<?xml version="1.0" encoding="UTF-8"?>
<svg width="42px" height="44px" viewBox="0 0 42 44" version="1.1" xmlns="http://www.w3.org/2000/svg" xmlns:xlink="http://www.w3.org/1999/xlink">
    <!-- Generator: Sketch 49 (51002) - http://www.bohemiancoding.com/sketch -->
    <title>@2xicon/sp-default</title>
    <desc>Created with Sketch.</desc>
    <defs>
        <path d="M27.828866,20.8206186 L27.828866,6.94020619 L20.8886598,0 L13.9484536,6.94020619 L13.9484536,11.5670103 L0.0680412371,11.5670103 L0.0680412371,43.9546392 L41.7092784,43.9546392 L41.7092784,20.8206186 L27.828866,20.8206186 Z M9.32164948,39.3278351 L4.69484536,39.3278351 L4.69484536,34.7010309 L9.32164948,34.7010309 L9.32164948,39.3278351 Z M9.32164948,30.0742268 L4.69484536,30.0742268 L4.69484536,25.4474227 L9.32164948,25.4474227 L9.32164948,30.0742268 Z M9.32164948,20.8206186 L4.69484536,20.8206186 L4.69484536,16.1938144 L9.32164948,16.1938144 L9.32164948,20.8206186 Z M23.2020619,39.3278351 L18.5752577,39.3278351 L18.5752577,34.7010309 L23.2020619,34.7010309 L23.2020619,39.3278351 Z M23.2020619,30.0742268 L18.5752577,30.0742268 L18.5752577,25.4474227 L23.2020619,25.4474227 L23.2020619,30.0742268 Z M23.2020619,20.8206186 L18.5752577,20.8206186 L18.5752577,16.1938144 L23.2020619,16.1938144 L23.2020619,20.8206186 Z M23.2020619,11.5670103 L18.5752577,11.5670103 L18.5752577,6.94020619 L23.2020619,6.94020619 L23.2020619,11.5670103 Z M37.0824742,39.3278351 L32.4556701,39.3278351 L32.4556701,34.7010309 L37.0824742,34.7010309 L37.0824742,39.3278351 Z M37.0824742,30.0742268 L32.4556701,30.0742268 L32.4556701,25.4474227 L37.0824742,25.4474227 L37.0824742,30.0742268 Z" id="path-1"></path>
    </defs>
    <g id="Desktop" stroke="none" stroke-width="1" fill="none" fill-rule="evenodd">
        <g id="13-In-complete-profile" transform="translate(-699.000000, -265.000000)">
            <g id="Info-3" transform="translate(486.000000, 233.000000)">
                <g id="icon/sp-default" transform="translate(213.000000, 32.000000)">
                    <g>
                        <mask id="mask-2" fill="white">
                            <use xlink:href="#path-1"></use>
                        </mask>
                        <use id="Mask" fill="#000000" fill-rule="nonzero" xlink:href="#path-1"></use>
                        <g id="color/primary-1" mask="url(#mask-2)" fill="#8200FF" fill-rule="nonzero">
                            <g transform="translate(-7.000000, -8.000000)" id="Rectangle">
                                <rect x="0" y="0" width="60" height="60"></rect>
                            </g>
                        </g>
                    </g>
                </g>
            </g>
        </g>
    </g>
</svg>