<?xml version="1.0" encoding="UTF-8"?>
<svg width="50px" height="64px" viewBox="0 0 50 64" version="1.1" xmlns="http://www.w3.org/2000/svg" xmlns:xlink="http://www.w3.org/1999/xlink">
    <!-- Generator: Sketch 49 (51002) - http://www.bohemiancoding.com/sketch -->
    <title>@2x001-user</title>
    <desc>Created with Sketch.</desc>
    <defs></defs>
    <g id="Desktop" stroke="none" stroke-width="1" fill="none" fill-rule="evenodd">
        <g id="18-Join-as-pro" transform="translate(-97.000000, -919.000000)" fill-rule="nonzero">
            <g id="Section-1" transform="translate(82.000000, 760.000000)">
                <g id="1" transform="translate(0.000000, 151.000000)">
                    <g id="001-user" transform="translate(15.000000, 8.000000)">
                        <polyline id="XMLID_342_" fill="#DDC6F4" points="26.5931755 37.3812245 27.611951 59.9510204 24.5164408 62.7461224 21.4731755 59.9902041 22.4527673 37.3812245"></polyline>
                        <path d="M1.29358367,52.7542857 C1.9466449,52.7542857 2.4821551,52.2187755 2.4821551,51.5657143 L2.4821551,44.9959184 C2.4821551,43.9510204 2.93929796,42.9714286 3.73603265,42.3183673 C9.60052245,37.4987755 15.9482776,34.2987755 17.1629714,33.7110204 C17.7246041,33.4367347 18.0641959,32.8881633 18.0641959,32.2612245 L18.0641959,23.0138776 C18.0641959,22.6220408 17.8682776,22.2432653 17.5417469,22.0342857 C16.6666449,21.4465306 16.1441959,20.4669388 16.1441959,19.4220408 L16.1441959,9.82204082 C16.1441959,5.7077551 19.4878694,2.36408163 23.6021551,2.36408163 L25.6658286,2.36408163 C29.7801143,2.36408163 33.1237878,5.7077551 33.1237878,9.82204082 L33.1237878,19.4089796 C33.1237878,20.4538776 32.6013388,21.4334694 31.7262367,22.0212245 C31.3997061,22.2432653 31.2037878,22.6089796 31.2037878,23.0008163 L31.2037878,32.2481633 C31.2037878,32.875102 31.5433796,33.4236735 32.1050122,33.6979592 C33.3197061,34.2857143 39.6674612,37.4987755 45.531951,42.3053061 C46.3286857,42.9583673 46.7858286,43.9379592 46.7858286,44.9828571 L46.7858286,51.5526531 C46.7858286,52.2057143 47.3213388,52.7412245 47.9744,52.7412245 C48.6274612,52.7412245 49.1629714,52.2057143 49.1629714,51.5526531 L49.1629714,44.9828571 C49.1629714,43.2326531 48.3923592,41.5869388 47.0339918,40.4767347 C41.4829714,35.9183673 35.5009306,32.7444898 33.5678694,31.7779592 L33.5678694,23.6016327 C34.7825633,22.5567347 35.5009306,21.0416327 35.5009306,19.4220408 L35.5009306,9.82204082 C35.5009306,4.40163265 31.099298,0 25.6788898,0 L23.6152163,0 C18.1948082,0 13.7931755,4.40163265 13.7931755,9.82204082 L13.7931755,19.4089796 C13.7931755,21.0285714 14.4984816,22.5567347 15.7262367,23.5885714 L15.7262367,31.7910204 C13.7931755,32.757551 7.82419592,35.9183673 2.26011429,40.4897959 C0.914808163,41.6 0.131134694,43.2457143 0.131134694,44.9959184 L0.131134694,51.5657143 C0.105012245,52.2318367 0.640522449,52.7542857 1.29358367,52.7542857 Z" id="Shape" fill="#000000"></path>
                        <path d="M27.7946776,33.7371429 C27.1416163,33.7371429 26.6061061,34.2726531 26.6061061,34.9257143 C26.6061061,35.5134694 26.3579429,36.0359184 25.9530449,36.4016327 C25.8746776,36.4538776 25.7963102,36.5061224 25.7310041,36.5844898 C25.4175347,36.8065306 25.025698,36.9240816 24.6077388,36.9240816 C23.5105959,36.9240816 22.6093714,36.0359184 22.6093714,34.9257143 C22.6093714,34.2726531 22.0738612,33.7371429 21.4208,33.7371429 C20.7677388,33.7371429 20.2322286,34.2726531 20.2322286,34.9257143 C20.2322286,35.9706122 20.6110041,36.9371429 21.2248816,37.6946939 L20.258351,59.9510204 C20.2452898,60.3036735 20.3889633,60.6432653 20.6501878,60.8783673 L23.6934531,63.6212245 C23.9154939,63.8302041 24.2028408,63.9216327 24.4901878,63.9216327 C24.7775347,63.9216327 25.0648816,63.8171429 25.2869224,63.6212245 L28.4085551,60.8261224 C28.6697796,60.5910204 28.8134531,60.2514286 28.8003918,59.8987755 L27.8077388,37.9036735 C28.5391673,37.12 28.983249,36.075102 28.983249,34.9257143 C28.9833796,34.2595918 28.4477388,33.7371429 27.7946776,33.7371429 Z M24.5164408,61.1526531 L22.6748082,59.4938776 L23.5499102,39.1444898 C23.889502,39.2359184 24.2421551,39.275102 24.6078694,39.275102 C24.9082776,39.275102 25.1956245,39.2489796 25.4699102,39.1836735 L26.3841959,59.4416327 L24.5164408,61.1526531 Z" id="Shape" fill="#000000"></path>
                    </g>
                </g>
            </g>
        </g>
    </g>
</svg>