<?xml version="1.0" encoding="UTF-8"?>
<svg width="26px" height="32px" viewBox="0 0 26 32" version="1.1" xmlns="http://www.w3.org/2000/svg" xmlns:xlink="http://www.w3.org/1999/xlink">
    <!-- Generator: Sketch 49.1 (51147) - http://www.bohemiancoding.com/sketch -->
    <title>@2xcsv</title>
    <desc>Created with Sketch.</desc>
    <defs></defs>
    <g id="Symbols" stroke="none" stroke-width="1" fill="none" fill-rule="evenodd">
        <g id="field/upload-file-area" transform="translate(-202.000000, -32.000000)">
            <g id="switch-option-inactive">
                <g id="Group-2" transform="translate(25.000000, 32.000000)">
                    <g id="Group" transform="translate(177.000000, 0.000000)">
                        <g id="icon/csv">
                            <g id="csv">
                                <polygon id="Shape" fill="#E4E4E4" fill-rule="nonzero" points="19.5933292 0.752351097 0.836815047 0.752351097 0.836815047 31.1661944 24.6616677 31.1661944 24.6616677 5.82068966"></polygon>
                                <polygon id="Shape" fill="#007934" fill-rule="nonzero" points="20.3776803 3.28657053 0.836815047 3.28657053 0.836815047 0.752351097 19.5933292 0.752351097"></polygon>
                                <polygon id="Shape" fill="#D1D3D3" fill-rule="nonzero" points="19.5933292 5.82068966 24.6616677 5.82068966 19.5933292 0.752351097"></polygon>
                                <g id="Group" transform="translate(6.921630, 8.727273)" fill="#007934" fill-rule="nonzero">
                                    <rect id="Rectangle-path" x="4.15869592" y="0.0846645768" width="3.33783072" height="1.54663323"></rect>
                                    <rect id="Rectangle-path" x="8.2359373" y="0.0846645768" width="3.33773041" height="1.54663323"></rect>
                                    <rect id="Rectangle-path" x="4.15869592" y="2.3233605" width="3.33783072" height="1.54673354"></rect>
                                    <rect id="Rectangle-path" x="8.2359373" y="2.3233605" width="3.33773041" height="1.54673354"></rect>
                                    <rect id="Rectangle-path" x="4.15869592" y="4.56215674" width="3.33783072" height="1.54663323"></rect>
                                    <rect id="Rectangle-path" x="8.2359373" y="4.56215674" width="3.33773041" height="1.54663323"></rect>
                                    <rect id="Rectangle-path" x="0.0814545455" y="4.56215674" width="3.33773041" height="1.54663323"></rect>
                                    <rect id="Rectangle-path" x="4.15869592" y="6.80105329" width="3.33783072" height="1.54663323"></rect>
                                    <rect id="Rectangle-path" x="8.2359373" y="6.80105329" width="3.33773041" height="1.54663323"></rect>
                                    <rect id="Rectangle-path" x="0.0814545455" y="6.80105329" width="3.33773041" height="1.54663323"></rect>
                                    <polygon id="Shape" points="3.36932915 3.67769279 2.3620815 3.67769279 1.7339185 2.67044514 1.11237618 3.67769279 0.127197492 3.67769279 1.19613793 2.02904075 0.191197492 0.455423197 1.15661442 0.455423197 1.7384326 1.45173668 2.29828213 0.455423197 3.2922884 0.455423197 2.27179937 2.09745455"></polygon>
                                </g>
                                <path d="M25.1936301,5.28882759 L20.1253918,0.220388715 C19.9842508,0.0792476489 19.792953,0 19.5933292,0 L0.836815047,0 C0.421316614,0 0.0844639498,0.336852665 0.0844639498,0.752351097 L0.0844639498,31.1661944 C0.0844639498,31.5817931 0.421316614,31.9185455 0.836815047,31.9185455 L24.6616677,31.9185455 C25.0771661,31.9185455 25.4140188,31.5817931 25.4140188,31.1661944 L25.4140188,5.82068966 C25.4140188,5.62116614 25.3347712,5.42986834 25.1936301,5.28882759 Z M20.3456803,2.56862696 L22.8452915,5.06833856 L20.3456803,5.06833856 L20.3456803,2.56862696 Z M1.58916614,1.50470219 L18.8409781,1.50470219 L18.8409781,2.53421944 L1.58916614,2.53421944 L1.58916614,1.50470219 Z M23.9093166,30.4138433 L1.58916614,30.4138433 L1.58916614,4.03892163 L18.8409781,4.03892163 L18.8409781,5.82078997 C18.8409781,6.23638871 19.1778307,6.57314107 19.5933292,6.57314107 L23.9092163,6.57314107 L23.9093166,30.4138433 Z M9.06552978,23.6222194 C9.26304702,23.6222194 9.44762382,23.6498056 9.61956113,23.7050784 C9.79139812,23.7602508 9.96343574,23.828163 10.1352727,23.908815 L10.5205768,22.9186207 C10.0621442,22.6999373 9.58144201,22.5905956 9.07826959,22.5905956 C8.61773041,22.5905956 8.21707837,22.6888025 7.87651411,22.8852163 C7.53584953,23.0815298 7.27473354,23.3622069 7.09326646,23.727348 C6.91169906,24.092489 6.82101567,24.5158119 6.82101567,24.9976176 C6.82101567,25.7682257 7.00830094,26.3571661 7.38297179,26.7646395 C7.75764263,27.1721129 8.29622571,27.3759498 8.998721,27.3759498 C9.48905329,27.3759498 9.92842633,27.2899812 10.3168401,27.1181442 L10.3168401,26.0546207 C10.1215298,26.135373 9.92732288,26.2042884 9.73421944,26.2615674 C9.54101567,26.3188464 9.34149216,26.3474357 9.1356489,26.3474357 C8.45421944,26.3474357 8.11365517,25.8996364 8.11365517,25.0039373 C8.11365517,24.5730909 8.19751724,24.2350345 8.36514107,23.9898683 C8.5328652,23.7449028 8.76639498,23.6222194 9.06552978,23.6222194 Z M12.399047,23.6828088 C12.473279,23.6255298 12.5921505,23.5968401 12.7556614,23.5968401 C13.0718495,23.5968401 13.4475235,23.696652 13.8825831,23.8961755 L14.2678871,22.9250408 C13.7669216,22.7021442 13.2755862,22.5906959 12.7938809,22.5906959 C12.2483762,22.5906959 11.8195361,22.7106708 11.5076614,22.9505204 C11.1955862,23.1904702 11.0395987,23.5247147 11.0395987,23.9533542 C11.0395987,24.1825705 11.0762132,24.3810909 11.149442,24.548815 C11.2226708,24.7165392 11.3352226,24.8650031 11.4868966,24.9945078 C11.6385705,25.1240125 11.8662821,25.2577304 12.169931,25.3956614 C12.505279,25.5464326 12.7116238,25.6461442 12.7891661,25.6948966 C12.8665078,25.7436489 12.922884,25.792 12.9578934,25.8397492 C12.9930031,25.8874984 13.0104577,25.9431724 13.0104577,26.0068715 C13.0104577,26.10879 12.9668213,26.1921505 12.8798495,26.2567524 C12.7927774,26.3215549 12.6559498,26.3539561 12.4690658,26.3539561 C12.2525893,26.3539561 12.0149467,26.3194483 11.7559373,26.2504326 C11.4970282,26.1815172 11.2476489,26.0854169 11.0077994,25.9623323 L11.0077994,27.0830345 C11.2349091,27.1912727 11.4534922,27.26721 11.6636489,27.3107461 C11.8738056,27.3542821 12.1338182,27.3759498 12.4435862,27.3759498 C12.815047,27.3759498 13.1387586,27.3138558 13.414721,27.189768 C13.6905831,27.0655799 13.9018433,26.8915361 14.0482006,26.6676364 C14.1947586,26.4437367 14.2678871,26.1874357 14.2678871,25.8987335 C14.2678871,25.584652 14.1899436,25.3240376 14.0338558,25.1170909 C13.8778683,24.9101442 13.5992978,24.7165392 13.1981442,24.5360752 C12.7799373,24.3450784 12.5236364,24.2134671 12.4292414,24.1412414 C12.3348464,24.069116 12.2875987,23.9874608 12.2875987,23.8961755 C12.2874984,23.81121 12.3246144,23.7400878 12.399047,23.6828088 Z M16.9550846,25.0296176 C16.9210784,25.1570157 16.8818558,25.3320627 16.8373166,25.5548589 C16.7926771,25.7777555 16.7629843,25.9634357 16.7481379,26.1121003 C16.7353981,25.9061567 16.6631724,25.5412163 16.5316614,25.0168777 L15.8980815,22.657605 L14.4844639,22.657605 L16.0031097,27.3122508 L17.4836364,27.3122508 L19.0086019,22.657605 L17.6015047,22.657605 L16.9550846,25.0296176 Z" id="Shape" fill="#333E48" fill-rule="nonzero"></path>
                            </g>
                        </g>
                    </g>
                </g>
            </g>
        </g>
    </g>
</svg>