<?xml version="1.0" encoding="UTF-8"?>
<svg width="26px" height="26px" viewBox="0 0 26 26" version="1.1" xmlns="http://www.w3.org/2000/svg" xmlns:xlink="http://www.w3.org/1999/xlink">
    <!-- Generator: Sketch 49 (51002) - http://www.bohemiancoding.com/sketch -->
    <title>@2xicon/dashboard-icon</title>
    <desc>Created with Sketch.</desc>
    <defs></defs>
    <g id="icon/dashboard-icon" stroke="none" stroke-width="1" fill="none" fill-rule="evenodd">
        <g id="dashboard-icon">
            <rect id="Rectangle" fill="#F8E71C" x="5" y="9" width="5" height="12"></rect>
            <rect id="Rectangle-Copy" fill="#50E3C2" x="10" y="5" width="5" height="16"></rect>
            <rect id="Rectangle-Copy-2" fill="#99C8FF" x="16" y="5" width="5" height="16"></rect>
            <path d="M23.1111111,0 L2.88888889,0 C1.3,0 0,1.3 0,2.88888889 L0,23.1111111 C0,24.7 1.3,26 2.88888889,26 L23.1111111,26 C24.7,26 26,24.7 26,23.1111111 L26,2.88888889 C26,1.3 24.7,0 23.1111111,0 Z M8.66666667,20.2222222 L5.77777778,20.2222222 L5.77777778,10.1111111 L8.66666667,10.1111111 L8.66666667,20.2222222 Z M14.4444444,20.2222222 L11.5555556,20.2222222 L11.5555556,5.77777778 L14.4444444,5.77777778 L14.4444444,20.2222222 Z M20.2222222,20.2222222 L17.3333333,20.2222222 L17.3333333,14.4444444 L20.2222222,14.4444444 L20.2222222,20.2222222 Z" id="Shape" fill="#1A1A1A" fill-rule="nonzero"></path>
        </g>
    </g>
</svg>