<?xml version="1.0" encoding="UTF-8"?>
<svg width="26px" height="26px" viewBox="0 0 26 26" version="1.1" xmlns="http://www.w3.org/2000/svg" xmlns:xlink="http://www.w3.org/1999/xlink">
    <!-- Generator: Sketch 49 (51002) - http://www.bohemiancoding.com/sketch -->
    <title>@2xdashboard-icon</title>
    <desc>Created with Sketch.</desc>
    <defs>
        <linearGradient x1="50%" y1="0%" x2="50%" y2="100%" id="linearGradient-1">
            <stop stop-color="#FFFFFF" offset="0%"></stop>
            <stop stop-color="#D9D9D9" offset="100%"></stop>
        </linearGradient>
    </defs>
    <g id="Symbols" stroke="none" stroke-width="1" fill="none" fill-rule="evenodd">
        <g id="row/data-model-log-row">
            <g id="data-model-log">
                <g id="icon/data-model-icon">
                    <g id="dashboard-icon">
                        <rect id="Rectangle" fill="url(#linearGradient-1)" x="4" y="3" width="18" height="20"></rect>
                        <path d="M23.1111111,0 C24.7,0 26,1.3 26,2.88888889 L26,23.1111111 C26,24.7 24.7,26 23.1111111,26 L2.88888889,26 C1.3,26 0,24.7 0,23.1111111 L0,2.88888889 C0,1.3 1.3,0 2.88888889,0 L23.1111111,0 Z M13.1671991,3 C8.66032407,3 5.00657407,4.331875 5.00657407,5.975625 L5.00657407,8.41729167 C5.00657407,10.06125 8.66032407,11.3927083 13.1671991,11.3927083 C17.6738657,11.3927083 21.3276157,10.0610417 21.3276157,8.41729167 L21.3276157,5.975625 C21.3276157,4.331875 17.6738657,3 13.1671991,3 Z M13.1671991,12.815625 C8.86428241,12.815625 5.31678241,11.600625 5.00657407,10.06 C4.99178241,10.1335417 5.00657407,14.0922917 5.00657407,14.0922917 C5.00657407,15.7364583 8.66032407,17.0679167 13.1671991,17.0679167 C17.6738657,17.0679167 21.3276157,15.7360417 21.3276157,14.0922917 C21.3276157,14.0922917 21.3367824,10.1333333 21.3221991,10.06 C21.0115741,11.6008333 17.4699074,12.815625 13.1671991,12.815625 Z M21.3199074,15.805 C21.0099074,17.3447917 17.4701157,18.5604167 13.1671991,18.5604167 C8.86428241,18.5604167 5.31594907,17.3445833 5.00574074,15.805 L5.00657407,19.8375 C5.00657407,21.4814583 8.66032407,22.8129167 13.1671991,22.8129167 C17.6738657,22.8129167 21.3276157,21.4810417 21.3276157,19.8375 L21.3199074,15.805 Z" id="Shape" fill="#1A1A1A" fill-rule="nonzero"></path>
                    </g>
                </g>
            </g>
        </g>
    </g>
</svg>