<?xml version="1.0" encoding="utf-8"?>
<!-- Generator: Adobe Illustrator 18.0.0, SVG Export Plug-In . SVG Version: 6.00 Build 0)  -->
<!DOCTYPE svg PUBLIC "-//W3C//DTD SVG 1.1//EN" "http://www.w3.org/Graphics/SVG/1.1/DTD/svg11.dtd">
<svg version="1.1" id="Layer_1" xmlns="http://www.w3.org/2000/svg" xmlns:xlink="http://www.w3.org/1999/xlink" x="0px" y="0px"
	 viewBox="0 0 159 100" enable-background="new 0 0 159 100" xml:space="preserve">
<title>@2xNo Activity Icon</title>
<desc>Created with Sketch.</desc>
<g id="_x30_2-Timeline-Empty" transform="translate(-771.000000, -302.000000)">
	<g id="Main">
		<g id="No-Activity-Message" transform="translate(683.000000, 302.000000)">
			<g id="No-Activity-Icon" transform="translate(88.000000, 0.000000)">
				<path id="Shape" fill="#6C7789" d="M69.9,41l-2.5-2.5c-0.6-0.6-0.6-1.5,0-2.1c0.6-0.6,1.5-0.6,2.1,0l2.5,2.5l2.5-2.5
					c0.6-0.6,1.5-0.6,2.1,0c0.6,0.6,0.6,1.5,0,2.1L74.1,41l2.5,2.5c0.6,0.6,0.6,1.5,0,2.1c-0.6,0.6-1.5,0.6-2.1,0L72,43.1l-2.5,2.5
					c-0.6,0.6-1.5,0.6-2.1,0c-0.6-0.6-0.6-1.5,0-2.1L69.9,41z M25.9,41l-2.5-2.5c-0.6-0.6-0.6-1.5,0-2.1c0.6-0.6,1.5-0.6,2.1,0
					l2.5,2.5l2.5-2.5c0.6-0.6,1.5-0.6,2.1,0c0.6,0.6,0.6,1.5,0,2.1L30.1,41l2.5,2.5c0.6,0.6,0.6,1.5,0,2.1c-0.6,0.6-1.5,0.6-2.1,0
					L28,43.1l-2.5,2.5c-0.6,0.6-1.5,0.6-2.1,0c-0.6-0.6-0.6-1.5,0-2.1L25.9,41z M97,57c0-0.8,0.7-1.5,1.5-1.5s1.5,0.7,1.5,1.5v27
					c0,3.3-2.7,6-6,6H60.9l2.1-0.9l-8.8,8.8c-2.3,2.3-6.1,2.3-8.5,0L37,89.1l2.1,0.9H6c-3.3,0-6-2.7-6-6V6c0-3.3,2.7-6,6-6h88
					c3.3,0,6,2.7,6,6v8c0,0.8-0.7,1.5-1.5,1.5S97,14.8,97,14V6c0-1.7-1.3-3-3-3H6C4.3,3,3,4.3,3,6v78c0,1.7,1.3,3,3,3h33.1l8.8,8.8
					c1.2,1.2,3.1,1.2,4.2,0l8.8-8.8H94c1.7,0,3-1.3,3-3V57z M35.5,63c0-0.8,0.7-1.5,1.5-1.5h26c0.8,0,1.5,0.7,1.5,1.5
					c0,0.8-0.7,1.5-1.5,1.5H37C36.2,64.5,35.5,63.8,35.5,63z"/>
				<path id="Rectangle-20" fill="#3EC8AA" d="M131.3,57.4h5c12.5,0,22.7-10.2,22.7-22.7c0-12.5-10.2-22.7-22.7-22.7h-21.6
					C102.2,12,92,22.2,92,34.7c0,12.5,10.2,22.7,22.7,22.7h5l3.4,3.4c1.3,1.3,3.5,1.3,4.8,0L131.3,57.4L131.3,57.4z M106,42.7
					c-4.4-0.2-6.8-2.7-7-7.3c0.3-4.6,2.7-7.1,7-7.5c4.3,0.4,6.7,2.9,7,7.5C112.7,40.1,110.3,42.5,106,42.7L106,42.7z M119,31.6
					c3.2,0.3,5,2.2,5.3,5.7c-0.3,3.5-2,5.3-5.3,5.5c-3.3-0.2-5.1-2-5.3-5.5C114,33.8,115.7,31.9,119,31.6L119,31.6z M125.5,45.3v-12
					c0-1,0.5-1.6,1.5-1.7c0.8,0.1,1.3,0.5,1.4,1.3c0.5-0.9,1.5-1.3,2.8-1.4c2.9,0.2,4.5,2.2,4.8,5.8c-0.3,3.4-1.9,5.2-4.9,5.3
					c-1.1-0.1-2-0.3-2.7-0.9v3.4c-0.1,1.1-0.5,1.6-1.4,1.7C126,46.9,125.5,46.3,125.5,45.3L125.5,45.3z M144.5,33.6
					c-0.1,0.9-0.5,1.3-1.2,1.4c-0.2,0.1-0.6-0.1-1-0.3c-0.7-0.3-1.3-0.5-1.6-0.6c-0.7,0.1-1,0.3-1,0.8c0,0.4,0.6,0.8,1.7,1.2
					c2.3,0.9,3.4,2,3.4,3.4c-0.2,2.1-1.6,3.2-4.2,3.3c-2.5-0.2-3.9-0.9-4.1-2.1c0.1-0.8,0.5-1.3,1.2-1.4c0.4,0,0.8,0.2,1.4,0.6
					c0.6,0.3,1.2,0.5,1.8,0.5c0.7,0.1,1.1-0.2,1.1-0.9c0-0.3-0.6-0.7-1.8-1.1c-2.2-0.9-3.4-2-3.4-3.4c0.1-2.1,1.4-3.3,4-3.4
					C143.2,31.8,144.4,32.5,144.5,33.6L144.5,33.6z M146.9,37.2v-7.9c0-0.9,0.5-1.3,1.5-1.4c0.9,0.1,1.3,0.6,1.4,1.4v7.9
					c-0.1,0.9-0.6,1.3-1.4,1.4C147.5,38.5,147,38,146.9,37.2L146.9,37.2z M148.5,42.7c-1-0.1-1.5-0.5-1.6-1.4c0.1-1,0.6-1.5,1.6-1.6
					c1,0.1,1.5,0.6,1.6,1.6C149.9,42.2,149.4,42.7,148.5,42.7L148.5,42.7z M128.4,37.2c0.1,2,0.9,3,2.3,3c1.4-0.1,2.2-1.1,2.3-3
					c-0.2-1.8-0.9-2.8-2.3-3C129.3,34.4,128.5,35.3,128.4,37.2L128.4,37.2z M119,34.3c-1.4,0.1-2.2,1.1-2.3,3c0.1,1.9,0.9,2.9,2.3,3
					c1.4-0.1,2.2-1,2.3-3C121.1,35.4,120.4,34.4,119,34.3L119,34.3z M106,40.1c2.4-0.1,3.8-1.7,3.9-4.7c-0.2-3-1.5-4.6-3.9-4.7
					c-2.4,0.2-3.7,1.7-3.8,4.7C102.2,38.4,103.5,40,106,40.1L106,40.1z"/>
			</g>
		</g>
	</g>
</g>
</svg>
