<?xml version="1.0" encoding="UTF-8"?>
<svg width="100px" height="93px" viewBox="0 0 100 93" version="1.1" xmlns="http://www.w3.org/2000/svg" xmlns:xlink="http://www.w3.org/1999/xlink">
    <!-- Generator: Sketch 49 (51002) - http://www.bohemiancoding.com/sketch -->
    <title>@2xicon/bidding</title>
    <desc>Created with Sketch.</desc>
    <defs></defs>
    <g id="Desktop" stroke="none" stroke-width="1" fill="none" fill-rule="evenodd">
        <g id="01-Landing-Page" transform="translate(-506.000000, -1774.000000)">
            <g id="Section-2" transform="translate(0.000000, 1548.000000)">
                <g id="2" transform="translate(413.000000, 212.000000)">
                    <g id="icon/bidding" transform="translate(93.000000, 14.000000)">
                        <g>
                            <circle id="Oval" fill="#3EC8AA" fill-rule="nonzero" cx="33.9425662" cy="29.9651731" r="27.9226069"></circle>
                            <path d="M99.8692464,73.4478615 C99.8692464,73.3867617 99.8692464,73.3256619 99.8488798,73.2645621 C99.8488798,73.2034623 99.8285132,73.1423625 99.8081466,73.0812627 C99.78778,73.0201629 99.78778,72.9590631 99.7674134,72.9183299 C99.7470468,72.8572301 99.7266802,72.8164969 99.685947,72.7553971 C99.6655804,72.6942974 99.6452138,72.6535642 99.6044807,72.5924644 C99.5841141,72.5313646 99.5433809,72.4906314 99.5026477,72.4498982 C99.4619145,72.409165 99.4415479,72.3480652 99.4008147,72.307332 C99.3600815,72.2665988 99.3193483,72.2258656 99.2582485,72.1851324 C99.2175153,72.1443992 99.1767821,72.103666 99.1360489,72.0629328 C99.0953157,72.0221996 99.0342159,72.001833 98.9731161,71.9610998 C98.9323829,71.9407332 98.8916497,71.9 98.8305499,71.8796334 L76.3661914,60.8002037 C76.3050916,60.7594705 76.2439919,60.7391039 76.1625255,60.7187373 C75.7755601,60.5761711 66.5087576,57.3378819 58.9323829,60.7391039 L42.2114053,66.7879837 C42.1706721,66.8083503 42.1095723,66.8287169 42.0688391,66.8490835 C39.6655804,67.9488798 38.4028513,70.4132383 38.9120163,72.9997963 C39.4211813,75.5659878 41.4985743,77.3786151 44.105499,77.5008147 C44.1258656,77.5008147 44.1258656,77.5008147 44.1462322,77.5008147 C44.309165,77.5008147 45.0423625,77.4600815 52.6594705,76.9712831 C55.9792261,76.7676171 59.4008147,76.5435845 59.7063136,76.5232179 C60.6635438,76.4824847 61.4578411,75.708554 61.4782077,74.7309572 C61.4985743,73.7126273 60.704277,72.8572301 59.6655804,72.8368635 C59.5637475,72.8368635 59.5637475,72.8368635 52.4354379,73.2849287 C48.8712831,73.5089613 44.8794297,73.7737271 44.207332,73.8144603 C42.9242363,73.7126273 42.6187373,72.6331976 42.5372709,72.307332 C42.3947047,71.6148676 42.5983707,70.6983707 43.5556008,70.2299389 L60.2562118,64.1810591 C60.296945,64.1606925 60.3376782,64.1403259 60.398778,64.1199593 C66.2643585,61.4519348 73.9221996,63.8551935 74.8386965,64.1403259 L84.8386965,69.0690428 L79.3397149,82.0425662 C76.6309572,80.3725051 73.3315682,79.9244399 70.2765784,80.8409369 L47.8325866,87.5822811 C45.1645621,88.396945 42.2114053,88.091446 39.7470468,86.7472505 L4.59429735,67.7044807 C3.33156823,67.0120163 3.7389002,65.810387 3.8407332,65.5659878 C3.96293279,65.2401222 4.49246436,64.2217923 5.77556008,64.5680244 L33.087169,73.6718941 C34.0443992,73.9977597 35.1034623,73.4682281 35.4293279,72.510998 C35.7551935,71.5334012 35.2256619,70.4947047 34.2684318,70.1688391 L6.89572301,61.0242363 C6.85498982,61.0038697 6.83462322,61.0038697 6.79389002,61.0038697 C4.08513238,60.2706721 1.45784114,61.5741344 0.419144603,64.1810591 C-0.639918534,66.8083503 0.358044807,69.5782077 2.84276986,70.9427699 L38.0158859,90.0466395 C41.3356415,91.8592668 45.3071283,92.2665988 48.9120163,91.1668024 L71.3560081,84.4254582 C73.4130346,83.8144603 75.6329939,84.0995927 77.4456212,85.2604888 L88.8916497,92.4702648 C88.9527495,92.510998 88.9934827,92.5313646 89.0545825,92.5517312 C89.0749491,92.5517312 89.0749491,92.5720978 89.0953157,92.5720978 L89.1156823,92.5720978 C89.1360489,92.5924644 89.1564155,92.5924644 89.1971487,92.5924644 C89.2378819,92.612831 89.2989817,92.6331976 89.3397149,92.6535642 C89.3600815,92.6535642 89.4008147,92.6739308 89.4211813,92.6739308 C89.4619145,92.6942974 89.5230143,92.6942974 89.5637475,92.714664 C89.5841141,92.714664 89.6248473,92.714664 89.6452138,92.7350305 C89.7266802,92.7350305 89.78778,92.7553971 89.8692464,92.7553971 C89.9507128,92.7553971 90.0321792,92.7553971 90.1136456,92.7350305 C90.1340122,92.7350305 90.1747454,92.7350305 90.195112,92.714664 C90.2562118,92.714664 90.296945,92.6942974 90.3580448,92.6739308 C90.3784114,92.6739308 90.4191446,92.6535642 90.4395112,92.6535642 C90.4802444,92.6331976 90.5413442,92.612831 90.5820774,92.5924644 C90.602444,92.5720978 90.6431772,92.5720978 90.6635438,92.5517312 C90.704277,92.5313646 90.7450102,92.510998 90.80611,92.4702648 C90.8264766,92.4498982 90.8672098,92.4295316 90.8875764,92.4295316 C90.9283096,92.409165 90.9690428,92.3684318 91.009776,92.3480652 C91.0301426,92.3276986 91.0708758,92.307332 91.0912424,92.2869654 C91.1319756,92.2462322 91.1523422,92.2258656 91.1930754,92.1851324 C91.213442,92.1647658 91.2338086,92.1443992 91.2745418,92.103666 C91.3152749,92.0629328 91.3356415,92.0221996 91.3560081,91.9814664 C91.3763747,91.9610998 91.3967413,91.9203666 91.4171079,91.9 C91.4171079,91.9 91.4171079,91.8796334 91.4374745,91.8796334 C91.4374745,91.8592668 91.4578411,91.8389002 91.4578411,91.8389002 C91.4782077,91.798167 91.5189409,91.7370672 91.5393075,91.6759674 L99.685947,74.3236253 C99.7063136,74.2625255 99.7266802,74.2217923 99.7470468,74.1606925 C99.7674134,74.0995927 99.78778,74.0384929 99.8081466,73.9977597 C99.8285132,73.9366599 99.8285132,73.8755601 99.8285132,73.8144603 C99.8285132,73.7533605 99.8488798,73.6922607 99.8488798,73.6311609 C99.8692464,73.5700611 99.8692464,73.5089613 99.8692464,73.4478615 Z M95.5922607,74.3847251 L89.0953157,88.2136456 L82.5169043,84.0588595 L88.1584521,70.7391039 L95.5922607,74.3847251 Z" id="Shape" fill="#1A1A1A" fill-rule="nonzero"></path>
                            <path d="M31.3356415,31.8185336 L36.5087576,31.8185336 C38.6268839,31.8185336 40.3376782,33.5293279 40.3376782,35.6474542 C40.3376782,37.7655804 38.6268839,39.4763747 36.5087576,39.4763747 L27.201222,39.4763747 C26.1828921,39.4763747 25.3478615,40.3114053 25.3478615,41.3297352 C25.3478615,42.3480652 26.1828921,43.1830957 27.201222,43.1830957 L32.0688391,43.1830957 L32.0688391,46.8287169 C32.0688391,47.8470468 32.9038697,48.6820774 33.9221996,48.6820774 C34.9405295,48.6820774 35.7755601,47.8470468 35.7755601,46.8287169 L35.7755601,43.1830957 L36.5291242,43.1830957 C40.6839104,43.1830957 44.0647658,39.8022403 44.0647658,35.6474542 C44.0647658,31.492668 40.6839104,28.1118126 36.5291242,28.1118126 L31.3560081,28.1118126 C29.2378819,28.1118126 27.5270876,26.4010183 27.5270876,24.2828921 C27.5270876,22.1647658 29.2378819,20.4539715 31.3560081,20.4539715 L40.500611,20.4539715 C41.5189409,20.4539715 42.3539715,19.6189409 42.3539715,18.600611 C42.3539715,17.5822811 41.5189409,16.7472505 40.500611,16.7472505 L35.7959267,16.7472505 L35.7959267,13.1830957 C35.7959267,12.1647658 34.9608961,11.3297352 33.9425662,11.3297352 C32.9242363,11.3297352 32.0892057,12.1647658 32.0892057,13.1830957 L32.0892057,16.7676171 L31.3356415,16.7676171 C27.1808554,16.7676171 23.8,20.1484725 23.8,24.3032587 C23.8203666,28.4376782 27.201222,31.8185336 31.3356415,31.8185336 Z" id="Shape" fill="#1A1A1A" fill-rule="nonzero"></path>
                            <path d="M33.9425662,59.7207739 C50.3580448,59.7207739 63.698167,46.3602851 63.698167,29.9651731 C63.698167,13.5700611 50.3376782,0.189205703 33.9425662,0.189205703 C17.5474542,0.189205703 4.16659878,13.5496945 4.16659878,29.9651731 C4.16659878,46.3806517 17.5270876,59.7207739 33.9425662,59.7207739 Z M33.9425662,3.89592668 C48.3213849,3.89592668 60.0118126,15.5863544 60.0118126,29.9651731 C60.0118126,44.3439919 48.3213849,56.0344196 33.9425662,56.0344196 C19.5637475,56.0344196 7.87331976,44.3439919 7.87331976,29.9651731 C7.87331976,15.5863544 19.5637475,3.89592668 33.9425662,3.89592668 Z" id="Shape" fill="#1A1A1A" fill-rule="nonzero"></path>
                        </g>
                    </g>
                </g>
            </g>
        </g>
    </g>
</svg>