<?xml version="1.0"?>
<svg xmlns="http://www.w3.org/2000/svg" xmlns:xlink="http://www.w3.org/1999/xlink" version="1.1" id="Layer_1" x="0px" y="0px" viewBox="0 0 512 512" style="enable-background:new 0 0 512 512;" xml:space="preserve" width="512px" height="512px" class=""><g><g>
	<g>
		<path d="M469.333,448h-10.667v-10.667c0-5.888-4.779-10.667-10.667-10.667h-32V320h10.667c17.643,0,32-14.357,32-32    s-14.357-32-32-32h-11.221c-4.843-72.96-58.645-132.693-128.896-146.347c-2.624-10.347-9.92-18.752-19.883-22.315V64H320    c4.309,0,8.213-2.603,9.856-6.592c1.664-3.989,0.747-8.576-2.304-11.627L313.771,32l13.781-13.781    c3.051-3.051,3.968-7.637,2.304-11.627C328.213,2.603,324.309,0,320,0h-64c-5.888,0-10.667,4.779-10.667,10.667v76.629    c-10.048,3.584-17.749,11.968-20.331,22.443C154.965,123.541,101.376,183.189,96.533,256h-11.2c-17.643,0-32,14.357-32,32    s14.357,32,32,32H96v106.667H64c-5.888,0-10.667,4.779-10.667,10.667V448H42.667c-17.643,0-32,14.357-32,32v21.333    c0,5.888,4.779,10.667,10.667,10.667h469.333c5.888,0,10.667-4.779,10.667-10.667V480C501.333,462.357,486.976,448,469.333,448z     M138.667,426.667h-21.333V320h21.333V426.667z M181.333,426.667H160V320h21.333V426.667z M224,426.667h-21.333V320H224V426.667z     M266.667,426.667h-21.333V320h21.333V426.667z M309.333,426.667H288V320h21.333V426.667z M352,426.667h-21.333V320H352V426.667z     M394.667,426.667h-21.333V320h21.333V426.667z" data-original="#000000" class="active-path" data-old_color="#000000" fill="#3EC8AA"/>
	</g>
</g></g> </svg>
