<?xml version="1.0" encoding="UTF-8"?>
<svg width="64px" height="56px" viewBox="0 0 64 56" version="1.1" xmlns="http://www.w3.org/2000/svg" xmlns:xlink="http://www.w3.org/1999/xlink">
    <!-- Generator: Sketch 49 (51002) - http://www.bohemiancoding.com/sketch -->
    <title>@2x004-chat</title>
    <desc>Created with Sketch.</desc>
    <defs></defs>
    <g id="Desktop" stroke="none" stroke-width="1" fill="none" fill-rule="evenodd">
        <g id="18-Join-as-pro" transform="translate(-770.000000, -1055.000000)" fill-rule="nonzero">
            <g id="Section-1" transform="translate(82.000000, 760.000000)">
                <g id="4" transform="translate(680.000000, 283.000000)">
                    <g id="004-chat" transform="translate(8.000000, 12.000000)">
                        <path d="M29.8187755,27.7355102 L45.8187755,27.7355102 L54.4130612,35.9640816 L54.4130612,27.7355102 L58.0571429,27.7355102 C60.6171429,27.7355102 62.7069388,25.6457143 62.7069388,23.0857143 L62.7069388,5.84489796 C62.7069388,3.28489796 60.6171429,1.19510204 58.0571429,1.19510204 L29.8187755,1.19510204 C27.2587755,1.19510204 25.1689796,3.28489796 25.1689796,5.84489796 L25.1689796,23.0857143 C25.1689796,25.6457143 27.2587755,27.7355102 29.8187755,27.7355102 Z" id="XMLID_61_" fill="#3EC8AA"></path>
                        <path d="M8.94693878,55.7126531 C9.09061224,55.7779592 9.26040816,55.8040816 9.41714286,55.8040816 C9.71755102,55.8040816 10.0179592,55.6865306 10.24,55.477551 L18.4293878,47.6408163 L33.8285714,47.6408163 C37.0285714,47.6408163 39.6277551,45.0416327 39.6277551,41.8416327 L39.6277551,33.1036735 C39.6277551,32.4506122 39.0922449,31.915102 38.4391837,31.915102 C37.7861224,31.915102 37.2506122,32.4506122 37.2506122,33.1036735 L37.2506122,41.8416327 C37.2506122,43.7355102 35.7093878,45.2636735 33.8285714,45.2636735 L17.9461224,45.2636735 C17.6457143,45.2636735 17.3453061,45.3812245 17.1232653,45.5902041 L10.5926531,51.8334694 L10.5926531,46.4653061 C10.5926531,45.8122449 10.0571429,45.2767347 9.40408163,45.2767347 L5.79918367,45.2767347 C3.90530612,45.2767347 2.37714286,43.7355102 2.37714286,41.8546939 L2.37714286,24.7444898 C2.37714286,22.8506122 3.91836735,21.3093878 5.79918367,21.3093878 L19.8138776,21.3093878 C20.4669388,21.3093878 21.002449,20.7738776 21.002449,20.1208163 C21.002449,19.4677551 20.4669388,18.9322449 19.8138776,18.9322449 L5.79918367,18.9322449 C2.59918367,18.9322449 0,21.5314286 0,24.7314286 L0,41.8416327 C0,45.0416327 2.59918367,47.6408163 5.79918367,47.6408163 L8.22857143,47.6408163 L8.22857143,54.6285714 C8.22857143,55.0987755 8.51591837,55.5297959 8.94693878,55.7126531 Z" id="Shape" fill="#000000"></path>
                        <path d="M45.3485714,28.9240816 L53.6032653,36.8261224 C53.8253061,37.035102 54.1257143,37.1526531 54.4261224,37.1526531 C54.5828571,37.1526531 54.7395918,37.1265306 54.8963265,37.0612245 C55.3273469,36.8783673 55.6146939,36.4473469 55.6146939,35.9771429 L55.6146939,28.9240816 L58.0702041,28.9240816 C61.2832653,28.9240816 63.9085714,26.3118367 63.9085714,23.0857143 L63.9085714,5.84489796 C63.9085714,2.63183673 61.2963265,0.00653061224 58.0702041,0.00653061224 L29.8187755,0.00653061224 C26.6057143,0.00653061224 23.9804082,2.61877551 23.9804082,5.84489796 L23.9804082,23.0857143 C23.9804082,26.2987755 26.5926531,28.9240816 29.8187755,28.9240816 L45.3485714,28.9240816 Z M26.357551,23.0857143 L26.357551,5.84489796 C26.357551,3.93795918 27.9118367,2.38367347 29.8187755,2.38367347 L58.0571429,2.38367347 C59.9640816,2.38367347 61.5183673,3.93795918 61.5183673,5.84489796 L61.5183673,23.0857143 C61.5183673,24.9926531 59.9640816,26.5469388 58.0571429,26.5469388 L54.4130612,26.5469388 C53.76,26.5469388 53.2244898,27.082449 53.2244898,27.7355102 L53.2244898,33.195102 L46.6285714,26.8865306 C46.4065306,26.677551 46.1191837,26.56 45.8057143,26.56 L29.8187755,26.56 C27.9118367,26.56 26.357551,25.0057143 26.357551,23.0857143 Z" id="Shape" fill="#000000"></path>
                        <path d="M43.9379592,15.8889796 C44.2514286,15.8889796 44.5518367,15.7583673 44.7738776,15.5363265 C44.9959184,15.3142857 45.1265306,15.0138776 45.1265306,14.7004082 C45.1265306,14.3869388 44.9959184,14.0865306 44.7738776,13.8644898 C44.5518367,13.642449 44.2514286,13.5118367 43.9379592,13.5118367 C43.6244898,13.5118367 43.3240816,13.642449 43.1020408,13.8644898 C42.88,14.0865306 42.7493878,14.3869388 42.7493878,14.7004082 C42.7493878,15.0138776 42.88,15.3142857 43.1020408,15.5363265 C43.3240816,15.7714286 43.6244898,15.8889796 43.9379592,15.8889796 Z" id="Shape" fill="#000000"></path>
                        <path d="M48.3526531,15.8889796 C48.6661224,15.8889796 48.9665306,15.7583673 49.1885714,15.5363265 C49.4106122,15.3142857 49.5412245,15.0138776 49.5412245,14.7004082 C49.5412245,14.3869388 49.4106122,14.0865306 49.1885714,13.8644898 C48.9665306,13.642449 48.6661224,13.5118367 48.3526531,13.5118367 C48.0391837,13.5118367 47.7387755,13.642449 47.5167347,13.8644898 C47.2946939,14.0865306 47.1640816,14.3869388 47.1640816,14.7004082 C47.1640816,15.0138776 47.2946939,15.3142857 47.5167347,15.5363265 C47.7257143,15.7714286 48.0391837,15.8889796 48.3526531,15.8889796 Z" id="Shape" fill="#000000"></path>
                        <path d="M39.5363265,15.8889796 C39.8497959,15.8889796 40.1502041,15.7583673 40.3722449,15.5363265 C40.5942857,15.3142857 40.724898,15.0138776 40.724898,14.7004082 C40.724898,14.3869388 40.5942857,14.0865306 40.3722449,13.8644898 C40.1502041,13.642449 39.8497959,13.5118367 39.5363265,13.5118367 C39.2228571,13.5118367 38.922449,13.642449 38.7004082,13.8644898 C38.4783673,14.0865306 38.3477551,14.3869388 38.3477551,14.7004082 C38.3477551,15.0138776 38.4783673,15.3142857 38.7004082,15.5363265 C38.922449,15.7714286 39.2228571,15.8889796 39.5363265,15.8889796 Z" id="Shape" fill="#000000"></path>
                    </g>
                </g>
            </g>
        </g>
    </g>
</svg>