<?xml version="1.0" encoding="UTF-8"?>
<svg width="44px" height="46px" viewBox="0 0 44 46" version="1.1" xmlns="http://www.w3.org/2000/svg" xmlns:xlink="http://www.w3.org/1999/xlink">
    <!-- Generator: Sketch 49 (51002) - http://www.bohemiancoding.com/sketch -->
    <title>@2xdiscount</title>
    <desc>Created with Sketch.</desc>
    <defs></defs>
    <g id="Desktop" stroke="none" stroke-width="1" fill="none" fill-rule="evenodd">
        <g id="18-Join-as-pro" transform="translate(-780.000000, -928.000000)" fill-rule="nonzero">
            <g id="Section-1" transform="translate(82.000000, 760.000000)">
                <g id="2" transform="translate(680.000000, 151.000000)">
                    <g id="discount" transform="translate(18.000000, 17.000000)">
                        <path d="M41.8795097,23.5936148 C41.6951518,23.2163969 41.6951518,22.7837821 41.8795097,22.4066537 L43.5884903,18.9105642 C44.5399922,16.9639767 43.7860934,14.6438405 41.8721712,13.6283502 L38.4347004,11.8044591 C38.0638366,11.607751 37.8095837,11.2576498 37.7370039,10.8442763 L37.0647237,7.01133074 C36.6903696,4.87725292 34.7163074,3.44319844 32.5714008,3.74667315 L28.7184086,4.29169261 C28.3025292,4.35040078 27.8913035,4.2166965 27.5896187,3.92485603 L24.7928366,1.21926848 C23.2355486,-0.287276265 20.7959377,-0.287365759 19.2387393,1.21926848 L16.4418677,3.92512451 C16.1400934,4.21705447 15.7288677,4.35049027 15.3130778,4.29196109 L11.4600856,3.74694163 C9.31446304,3.44328794 7.34111673,4.8775214 6.96676265,7.01159922 L6.29448249,10.8443658 C6.22190272,11.2578288 5.96764981,11.6078405 5.59687549,11.8046381 L2.15940467,13.6285292 C0.24548249,14.64393 -0.508416342,16.9642451 0.443085603,18.9108327 L2.15197665,22.4068327 C2.33633463,22.7840506 2.33633463,23.2166654 2.15197665,23.5937938 L0.442996109,27.0897938 C-0.508505837,29.0363813 0.245392996,31.3565175 2.15931518,32.3720078 L5.59678599,34.1958988 C5.96764981,34.392607 6.22190272,34.7427082 6.29448249,35.1560817 L6.96676265,38.9890272 C7.30755642,40.9317665 8.97340078,42.2942257 10.8879494,42.2940467 C11.0765136,42.2940467 11.2678521,42.2808016 11.4601751,42.2535953 L15.3131673,41.7085759 C15.7286887,41.6495992 16.1401829,41.783572 16.4419572,42.0754125 L19.2387393,44.781 C20.0175175,45.5343619 21.0164514,45.9109533 22.0157432,45.9108638 C23.0147665,45.9107743 24.0143268,45.5341829 24.7927471,44.781 L27.5896187,42.0754125 C27.891393,41.783572 28.3027082,41.6502257 28.7184086,41.7085759 L32.5714008,42.2535953 C34.7172918,42.5571595 36.6903696,41.1230156 37.0647237,38.9889377 L37.7370934,35.1561712 C37.8096732,34.7427082 38.0639261,34.3926965 38.4347004,34.1958988 L41.8721712,32.3720078 C43.7860934,31.356607 44.5399922,29.0362918 43.5884903,27.0897043 L41.8795097,23.5936148 Z M40.6334825,30.0373735 L37.1960117,31.8612646 C36.1000661,32.4428872 35.3484047,33.4772607 35.1340661,34.699393 L34.461786,38.532249 C34.3351518,39.2542879 33.6676148,39.7392568 32.9415486,39.636786 L29.0885564,39.0917665 C27.8598016,38.9177004 26.6439339,39.3131751 25.7521245,40.1758093 L22.9552529,42.8813074 C22.4284903,43.3908872 21.6030856,43.3908872 21.076144,42.8813074 L18.2793619,40.1757198 C17.525642,39.4466109 16.5403113,39.0514942 15.5116654,39.0514942 C15.3231907,39.0514942 15.1331946,39.0647393 14.94293,39.091677 L11.0899377,39.6366965 C10.3644981,39.7392568 9.69642412,39.2541984 9.56970039,38.5321595 L8.89733074,34.699214 C8.68290272,33.4770817 7.93133074,32.4426187 6.83529572,31.8611751 L3.3978249,30.037284 C2.75024514,29.693716 2.49518677,28.9087626 2.81709728,28.2501751 L4.52607782,24.7540856 C5.07091829,23.6393463 5.07091829,22.3608327 4.52607782,21.2460934 L2.81709728,17.7500039 C2.49518677,17.0914163 2.75024514,16.306463 3.3978249,15.9628949 L6.83529572,14.1390039 C7.93124125,13.5573813 8.68290272,12.5230078 8.89724125,11.3008755 L9.5695214,7.46801946 C9.69624514,6.74598054 10.3636926,6.26092218 11.0897588,6.36348249 L14.942751,6.90850195 C16.1710584,7.08238911 17.3873735,6.68709339 18.2791829,5.82445914 L21.0760545,3.1188716 C21.6028171,2.60929183 22.4282218,2.60929183 22.9551634,3.1188716 L25.7519455,5.82445914 C26.6437549,6.68718288 27.8598911,7.08238911 29.0883774,6.90850195 L32.9413696,6.36348249 C33.6668988,6.26083268 34.3349728,6.74598054 34.461607,7.46801946 L35.1338872,11.300965 C35.3483152,12.5230973 36.0998872,13.5575603 37.1959222,14.1390039 L40.633393,15.9628949 C41.2809728,16.306463 41.5360311,17.0914163 41.2141206,17.7500039 L39.5051401,21.2460039 C38.9602996,22.3606537 38.9602996,23.6393463 39.5051401,24.7539961 L41.2141206,28.2499961 C41.5361206,28.9087626 41.2810623,29.6938054 40.6334825,30.0373735 Z" id="Shape" fill="#000000"></path>
                        <path d="M31.6707315,13.3450117 C31.1547977,12.8289883 30.3180272,12.8289883 29.8020039,13.3450117 L12.3605759,30.7865292 C11.8445525,31.3025525 11.8445525,32.1392335 12.3605759,32.6552568 C12.6185875,32.9132685 12.956786,33.0423191 13.2948949,33.0423191 C13.6330039,33.0423191 13.9712918,32.913358 14.229214,32.6552568 L31.670642,15.2138288 C32.1868444,14.697716 32.1868444,13.8611245 31.6707315,13.3450117 Z" id="Shape" fill="#000000"></path>
                        <path d="M16.7301284,18.1550545 C15.5157821,18.1550545 14.527856,17.1671284 14.527856,15.9526926 C14.527856,14.7383463 15.5157821,13.7504202 16.7301284,13.7504202 C17.9444747,13.7504202 18.9324903,14.7383463 18.9324903,15.9526926 C18.9324008,17.1671284 17.9444747,18.1550545 16.7301284,18.1550545 Z" id="Path-Copy-2" fill="#DDC6F4"></path>
                        <path d="M16.7301284,11.1076576 C14.0585486,11.1076576 11.8850039,13.2812023 11.8850039,15.9527821 C11.8850039,18.6243619 14.0585486,20.7979066 16.7301284,20.7979066 C19.4017082,20.7979066 21.5752529,18.6243619 21.5752529,15.9527821 C21.5752529,13.2812023 19.4017082,11.1076576 16.7301284,11.1076576 Z M16.7301284,18.1550545 C15.5157821,18.1550545 14.527856,17.1671284 14.527856,15.9526926 C14.527856,14.7383463 15.5157821,13.7504202 16.7301284,13.7504202 C17.9444747,13.7504202 18.9324903,14.7383463 18.9324903,15.9526926 C18.9324008,17.1671284 17.9444747,18.1550545 16.7301284,18.1550545 Z" id="Shape" fill="#000000"></path>
                        <path d="M27.301179,32.2498482 C26.0868327,32.2498482 25.0988171,31.2619222 25.0988171,30.0475759 C25.0988171,28.8332296 26.0867432,27.8453035 27.301179,27.8453035 C28.5155253,27.8453035 29.5034514,28.8332296 29.5034514,30.0475759 C29.5034514,31.2619222 28.5155253,32.2498482 27.301179,32.2498482 Z" id="Path-Copy" fill="#DDC6F4"></path>
                        <path d="M27.301179,25.2024514 C24.6295992,25.2024514 22.4560545,27.3759961 22.4560545,30.0475759 C22.4560545,32.7191556 24.6295992,34.8927004 27.301179,34.8927004 C29.9727588,34.8927004 32.1463035,32.7191556 32.1463035,30.0475759 C32.1463035,27.3759961 29.9727588,25.2024514 27.301179,25.2024514 Z M27.301179,32.2498482 C26.0868327,32.2498482 25.0988171,31.2619222 25.0988171,30.0475759 C25.0988171,28.8332296 26.0867432,27.8453035 27.301179,27.8453035 C28.5155253,27.8453035 29.5034514,28.8332296 29.5034514,30.0475759 C29.5034514,31.2619222 28.5155253,32.2498482 27.301179,32.2498482 Z" id="Shape" fill="#000000"></path>
                    </g>
                </g>
            </g>
        </g>
    </g>
</svg>