<?xml version="1.0" encoding="UTF-8"?>
<svg width="76px" height="100px" viewBox="0 0 76 100" version="1.1" xmlns="http://www.w3.org/2000/svg" xmlns:xlink="http://www.w3.org/1999/xlink">
    <!-- Generator: Sketch 49 (51002) - http://www.bohemiancoding.com/sketch -->
    <title>@2xicon/done</title>
    <desc>Created with Sketch.</desc>
    <defs></defs>
    <g id="Symbols" stroke="none" stroke-width="1" fill="none" fill-rule="evenodd">
        <g id="icon/done" fill-rule="nonzero">
            <g>
                <path d="M16.9795918,96.9387755 L2.65306122,96.9387755 C2.2244898,96.9387755 1.85714286,96.5714286 1.85714286,96.1428571 L1.85714286,58.5918367 C1.85714286,58.1632653 2.2244898,57.7959184 2.65306122,57.7959184 L16.9795918,57.7959184 C17.4081633,57.7959184 17.7755102,58.1632653 17.7755102,58.5918367 L17.7755102,96.1428571 C17.7755102,96.5714286 17.4285714,96.9387755 16.9795918,96.9387755 Z" id="XMLID_595_" fill="#DDC6F4"></path>
                <path d="M38.1836735,1.85714286 L38.1836735,18.0204082 C38.1836735,19.0408163 39.0204082,19.877551 40.0408163,19.877551 C41.0612245,19.877551 41.8979592,19.0408163 41.8979592,18.0204082 L41.8979592,1.85714286 C41.8979592,0.836734694 41.0612245,0 40.0408163,0 C39,0 38.1836735,0.836734694 38.1836735,1.85714286 Z" id="Shape" fill="#1A1A1A"></path>
                <path d="M73.6122449,36.3265306 L57.4489796,36.3265306 C56.4285714,36.3265306 55.5918367,37.1632653 55.5918367,38.1836735 C55.5918367,39.2040816 56.4285714,40.0408163 57.4489796,40.0408163 L73.6122449,40.0408163 C74.6326531,40.0408163 75.4693878,39.2040816 75.4693878,38.1836735 C75.4693878,37.1632653 74.6326531,36.3265306 73.6122449,36.3265306 Z" id="Shape" fill="#1A1A1A"></path>
                <path d="M4.59183673,38.1836735 C4.59183673,39.2040816 5.42857143,40.0408163 6.44897959,40.0408163 L22.6122449,40.0408163 C23.6326531,40.0408163 24.4693878,39.2040816 24.4693878,38.1836735 C24.4693878,37.1632653 23.6326531,36.3265306 22.6122449,36.3265306 L6.44897959,36.3265306 C5.42857143,36.3265306 4.59183673,37.1632653 4.59183673,38.1836735 Z" id="Shape" fill="#1A1A1A"></path>
                <path d="M14.6326531,12.4285714 C14.9795918,12.0816327 15.1836735,11.6122449 15.1836735,11.122449 C15.1836735,10.6326531 14.9795918,10.1632653 14.6326531,9.81632653 C14.2857143,9.46938776 13.8163265,9.26530612 13.3265306,9.26530612 C12.8367347,9.26530612 12.3673469,9.46938776 12.0204082,9.81632653 C11.6734694,10.1632653 11.4693878,10.6326531 11.4693878,11.122449 C11.4693878,11.6122449 11.6734694,12.0816327 12.0204082,12.4285714 C12.3673469,12.7755102 12.8367347,12.9795918 13.3265306,12.9795918 C13.8163265,12.9795918 14.2857143,12.7755102 14.6326531,12.4285714 Z" id="Shape" fill="#1A1A1A"></path>
                <path d="M19.6326531,17.4285714 C18.9183673,18.1428571 18.9183673,19.3265306 19.6326531,20.0408163 C20,20.4081633 20.4693878,20.5918367 20.9387755,20.5918367 C21.4081633,20.5918367 21.8979592,20.4081633 22.244898,20.0408163 C22.9591837,19.3265306 22.9591837,18.1428571 22.244898,17.4285714 C21.5306122,16.7142857 20.3469388,16.7142857 19.6326531,17.4285714 Z" id="Shape" fill="#1A1A1A"></path>
                <path d="M18.4489796,16.244898 C19.1632653,15.5306122 19.1632653,14.3469388 18.4489796,13.6326531 C17.7346939,12.9183673 16.5510204,12.9183673 15.8367347,13.6326531 C15.122449,14.3469388 15.122449,15.5306122 15.8367347,16.244898 C16.2040816,16.6122449 16.6734694,16.7755102 17.1428571,16.7755102 C17.6122449,16.7959184 18.0816327,16.6122449 18.4489796,16.244898 Z" id="Shape" fill="#1A1A1A"></path>
                <path d="M23.4489796,21.244898 C23.1020408,21.5918367 22.9183673,22.0612245 22.9183673,22.5510204 C22.9183673,23.0408163 23.122449,23.5102041 23.4693878,23.8571429 C23.8163265,24.2040816 24.2857143,24.4081633 24.7755102,24.4081633 C25.2653061,24.4081633 25.7346939,24.2040816 26.0816327,23.8571429 C26.4285714,23.5102041 26.6326531,23.0408163 26.6326531,22.5510204 C26.6326531,22.0612245 26.4285714,21.5918367 26.0816327,21.244898 C25.7346939,20.8979592 25.2653061,20.6938776 24.7755102,20.6938776 C24.2653061,20.6938776 23.7755102,20.8979592 23.4489796,21.244898 Z" id="Shape" fill="#1A1A1A"></path>
                <path d="M63.6938776,11 C63.3469388,11.3469388 63.1428571,11.8163265 63.1428571,12.3061224 C63.1428571,12.7959184 63.3469388,13.2653061 63.6938776,13.6122449 C64.0408163,13.9591837 64.5102041,14.1632653 65,14.1632653 C65.4897959,14.1632653 65.9591837,13.9591837 66.3061224,13.6122449 C66.6530612,13.2653061 66.8367347,12.7959184 66.8367347,12.3061224 C66.8367347,11.8163265 66.6326531,11.3469388 66.3061224,11 C65.9591837,10.6530612 65.4897959,10.4693878 65,10.4693878 C64.5306122,10.4489796 64.0408163,10.6530612 63.6938776,11 Z" id="Shape" fill="#1A1A1A"></path>
                <path d="M57.3877551,21.755102 C57.8571429,21.755102 58.3265306,21.5714286 58.6938776,21.2244898 C59.4081633,20.5102041 59.4081633,19.3265306 58.6938776,18.6122449 C57.9795918,17.8979592 56.7959184,17.8979592 56.0816327,18.6122449 C55.3673469,19.3265306 55.3673469,20.5102041 56.0816327,21.2244898 C56.4489796,21.5918367 56.9183673,21.755102 57.3877551,21.755102 Z" id="Shape" fill="#1A1A1A"></path>
                <path d="M59.8979592,14.7959184 C59.1836735,15.5102041 59.1836735,16.6938776 59.8979592,17.4081633 C60.2653061,17.7755102 60.7346939,17.9591837 61.2040816,17.9591837 C61.6734694,17.9591837 62.1428571,17.7755102 62.5102041,17.4081633 C63.2244898,16.6938776 63.2244898,15.5102041 62.5102041,14.7959184 C61.7959184,14.0816327 60.6122449,14.0816327 59.8979592,14.7959184 Z" id="Shape" fill="#1A1A1A"></path>
                <path d="M51.7346939,23.7346939 C51.7346939,24.2244898 51.9387755,24.6938776 52.2857143,25.0408163 C52.6326531,25.3877551 53.1020408,25.5918367 53.5918367,25.5918367 C54.0816327,25.5918367 54.5510204,25.3877551 54.8979592,25.0408163 C55.244898,24.6938776 55.4489796,24.2244898 55.4489796,23.7346939 C55.4489796,23.244898 55.244898,22.7755102 54.8979592,22.4285714 C54.5510204,22.0816327 54.0816327,21.8979592 53.5918367,21.8979592 C53.1020408,21.8979592 52.6326531,22.1020408 52.2857143,22.4285714 C51.9387755,22.755102 51.7346939,23.244898 51.7346939,23.7346939 Z" id="Shape" fill="#1A1A1A"></path>
                <path d="M75.1428571,62.0816327 C75.1428571,56.3265306 70.4693878,51.6530612 64.7142857,51.6530612 L48.5102041,51.6530612 L48.5102041,39.9591837 C48.5102041,35.0408163 47.0816327,31.4897959 44.2244898,29.4081633 C39.7346939,26.1020408 33.5510204,28 33.3061224,28.0816327 C32.5306122,28.3265306 32.0204082,29.0408163 32.0204082,29.8367347 L32.0204082,42.9387755 C32.0204082,53.2653061 20.0408163,56.7959184 19.5306122,56.9387755 C19.2857143,57 19.0816327,57.122449 18.8979592,57.2653061 C18.2653061,56.4693878 17.2857143,55.9591837 16.2040816,55.9591837 L3.44897959,55.9591837 C1.55102041,55.9591837 0,57.5102041 0,59.4081633 L0,95.3469388 C0,97.244898 1.55102041,98.7959184 3.44897959,98.7959184 L16.1632653,98.7959184 C17.4285714,98.7959184 18.5510204,98.1020408 19.1428571,97.0612245 C21.0204082,98.8571429 23.5510204,99.9591837 26.3469388,99.9591837 L58.3877551,99.9591837 C65.4693878,99.9591837 69.9795918,96.244898 70.7755102,89.7755102 L75.0816327,62.3673469 C75.122449,62.2857143 75.1428571,62.1836735 75.1428571,62.0816327 Z M15.9387755,95.0816327 L3.71428571,95.0816327 L3.71428571,59.6530612 L15.9387755,59.6530612 L15.9387755,95.0816327 Z M67.1428571,89.244898 C67.1428571,89.2653061 67.1428571,89.2857143 67.1428571,89.3061224 C66.5714286,93.9183673 63.6326531,96.2653061 58.4081633,96.2653061 L26.3673469,96.2653061 C22.6530612,96.2653061 19.6326531,93.244898 19.6326531,89.5306122 L19.6326531,60.5102041 C19.9183673,60.5714286 20.2244898,60.5714286 20.5102041,60.4897959 C21.122449,60.3265306 35.6938776,56.0816327 35.6938776,42.9387755 L35.6938776,31.3265306 C37.2857143,31.0816327 40.0408163,30.9387755 42.0204082,32.3877551 C43.8571429,33.7346939 44.7959184,36.2857143 44.7959184,39.9591837 L44.7959184,53.5102041 C44.7959184,54.5306122 45.6326531,55.3673469 46.6530612,55.3673469 L64.7142857,55.3673469 C68.3877551,55.3673469 71.3673469,58.3061224 71.4489796,61.9591837 L67.1428571,89.244898 Z" id="Shape" fill="#1A1A1A"></path>
            </g>
        </g>
    </g>
</svg>