<?xml version="1.0" encoding="UTF-8"?>
<svg width="21px" height="36px" viewBox="0 0 21 36" version="1.1" xmlns="http://www.w3.org/2000/svg" xmlns:xlink="http://www.w3.org/1999/xlink">
    <!-- Generator: Sketch 49 (51002) - http://www.bohemiancoding.com/sketch -->
    <title>@2xicon/electricians</title>
    <desc>Created with Sketch.</desc>
    <defs>
        <path d="M19.8656016,7.79997656 L18.0656016,7.79997656 L18.0656016,1.8 C18.0656016,0.779976563 17.285625,0 16.2656016,0 C15.2455781,0 14.4656016,0.779976563 14.4656016,1.8 L14.4656016,7.79997656 L6.06564844,7.79997656 L6.06564844,1.8 C6.06564844,0.779976563 5.28567188,0 4.26564844,0 C3.245625,0 2.46564844,0.779976563 2.46564844,1.8 L2.46564844,7.79997656 L0.665648438,7.79997656 C0.305648438,7.79997656 0.065671875,8.03995313 0.065671875,8.39995312 L0.065671875,12.9599297 C0.065671875,15.9599531 1.20564844,18.8399531 3.24569531,21.0599297 C5.04569531,23.0999063 6.06571875,25.7399297 6.06571875,28.4399297 L6.06571875,29.9999531 C6.06571875,31.6799297 7.38569531,32.9999766 9.06574219,32.9999766 L9.66571875,32.9999766 L9.66571875,35.3999531 C9.66571875,35.7599531 9.90569531,35.9999297 10.2656953,35.9999297 C10.6256953,35.9999297 10.8656719,35.7599531 10.8656719,35.3999531 L10.8656719,32.9999766 L11.4656484,32.9999766 C13.145625,32.9999766 14.4656719,31.68 14.4656719,29.9999531 L14.4656719,28.4999766 C14.4656719,25.74 15.4256484,23.1599531 17.2856953,21.1199766 C19.3256719,18.9 20.4657188,15.9599531 20.4657188,12.96 L20.4657188,8.40002344 C20.4656484,8.04002344 20.2256016,7.79997656 19.8656016,7.79997656 Z M15.665625,1.8 C15.665625,1.44 15.9056016,1.20002344 16.2656016,1.20002344 C16.6256016,1.20002344 16.8655781,1.44 16.8655781,1.8 L16.8655781,7.79997656 L15.665625,7.79997656 L15.665625,1.8 Z M3.66560156,1.8 C3.66560156,1.49997656 3.90557813,1.20002344 4.26557813,1.20002344 C4.62557813,1.20002344 4.86555469,1.44 4.86555469,1.8 L4.86555469,7.79997656 L3.66553125,7.79997656 L3.66553125,1.8 L3.66560156,1.8 Z M19.265625,12.9000234 C19.265625,15.66 18.3056484,18.2400469 16.4456016,20.2800234 C14.405625,22.5 13.2656484,25.4399766 13.2656484,28.44 L13.2656484,30.0000234 C13.2656484,31.0200469 12.4856719,31.8000234 11.4656484,31.8000234 L9.06567188,31.8000234 C8.04564844,31.8000234 7.26567188,31.0200469 7.26567188,30.0000234 L7.26567188,28.5000469 C7.26567188,25.5000234 6.12569531,22.5600469 4.08564844,20.3400703 C2.28564844,18.3000234 1.265625,15.66 1.265625,12.96 L1.265625,9 L3.065625,9 L5.46560156,9 L15.0655781,9 L17.465625,9 L19.265625,9 L19.265625,12.9000234 Z M12.6656016,15.6000234 L9.30557812,15.6000234 L12.4856016,12.42 C12.7255781,12.1800234 12.7255781,11.8200234 12.4856016,11.5799766 C12.245625,11.3399297 11.885625,11.34 11.6455781,11.5799766 L7.44560156,15.7799531 C7.26560156,15.9599531 7.205625,16.1999297 7.32557812,16.4399766 C7.38555469,16.6799531 7.62560156,16.7999766 7.86557812,16.7999766 L11.2256016,16.7999766 L8.04557812,19.98 C7.80560156,20.2199766 7.80560156,20.5799766 8.04557812,20.8200234 C8.16560156,20.9400469 8.28555469,21.0000234 8.46555469,21.0000234 C8.64555469,21.0000234 8.76557812,20.9400469 8.88553125,20.8200234 L13.0855078,16.6200469 C13.2655078,16.4400469 13.3254844,16.2000703 13.2055312,15.9600234 C13.145625,15.7199766 12.9056484,15.6000234 12.6656016,15.6000234 Z" id="path-1"></path>
    </defs>
    <g id="Desktop" stroke="none" stroke-width="1" fill="none" fill-rule="evenodd">
        <g id="01-Landing-Page" transform="translate(-99.000000, -692.000000)">
            <g id="Below-Header" transform="translate(0.000000, 659.000000)">
                <g id="1" transform="translate(82.000000, 24.000000)">
                    <g id="icon/electricians" transform="translate(17.000000, 9.000000)">
                        <g id="color/primary-1">
                            <g>
                                <mask id="mask-2" fill="white">
                                    <use xlink:href="#path-1"></use>
                                </mask>
                                <use id="Mask" fill="#8200FF" fill-rule="nonzero" xlink:href="#path-1"></use>
                                <g mask="url(#mask-2)" fill="#8200FF" fill-rule="nonzero" id="Rectangle">
                                    <g transform="translate(-19.000000, -13.000000)">
                                        <rect x="0" y="0" width="60" height="60"></rect>
                                    </g>
                                </g>
                            </g>
                        </g>
                    </g>
                </g>
            </g>
        </g>
    </g>
</svg>