<?xml version="1.0" encoding="utf-8"?>
<!-- Generator: Adobe Illustrator 18.0.0, SVG Export Plug-In . SVG Version: 6.00 Build 0)  -->
<!DOCTYPE svg PUBLIC "-//W3C//DTD SVG 1.1//EN" "http://www.w3.org/Graphics/SVG/1.1/DTD/svg11.dtd">
<svg version="1.1" id="Layer_1" xmlns="http://www.w3.org/2000/svg" xmlns:xlink="http://www.w3.org/1999/xlink" x="0px" y="0px"
	 viewBox="0 0 50 50" enable-background="new 0 0 50 50" xml:space="preserve">
<g>
	<path fill="none" d="M13.1,43.3h23.8V5.8H13.1V43.3z M25.2,16c2.1,0,3.9,1.7,3.9,3.9c0,2.1-1.7,3.9-3.9,3.9c-2.1,0-3.9-1.7-3.9-3.9
		C21.3,17.8,23.1,16,25.2,16z M25.2,25.7c3.9,0,7,3.1,7,7h-14C18.2,28.8,21.3,25.7,25.2,25.7z"/>
	<circle fill="#7E7E7E" cx="25.2" cy="19.9" r="3.9"/>
	<path fill="#7E7E7E" d="M25.2,25.7c-3.9,0-7,3.1-7,7h14C32.2,28.8,29,25.7,25.2,25.7z"/>
	<path fill="#7E7E7E" d="M35.9,0.6H14.1c-1.8,0-3.3,1.5-3.3,3.3v42.2c0,1.8,1.5,3.3,3.3,3.3h21.8c1.8,0,3.3-1.5,3.3-3.3V3.9
		C39.2,2.1,37.7,0.6,35.9,0.6z M36.9,43.3H13.1V5.8h23.8V43.3z"/>
</g>
</svg>
