<?xml version="1.0" encoding="UTF-8"?>
<svg width="36px" height="36px" viewBox="0 0 36 36" version="1.1" xmlns="http://www.w3.org/2000/svg" xmlns:xlink="http://www.w3.org/1999/xlink">
    <!-- Generator: Sketch 49 (51002) - http://www.bohemiancoding.com/sketch -->
    <title>@2xicon/plumbers</title>
    <desc>Created with Sketch.</desc>
    <defs>
        <path d="M21.5831429,5.99528571 C21.7030714,5.99528571 21.8829286,5.93535714 22.0027857,5.87535714 L24.8205714,3.59714286 L35.3723571,3.59714286 C35.7320714,3.59714286 35.9718571,3.35735714 35.9718571,2.99764286 L35.9718571,0.5995 C35.9718571,0.239785714 35.7320714,0 35.3723571,0 L23.3817143,0 C23.2617857,0 23.1419286,0.0599285714 22.9620714,0.119928571 L20.1442857,2.39814286 L19.7845714,2.39814286 L19.7845714,1.79857143 C19.7845714,0.779357143 19.0052143,6.34413157e-17 17.986,6.34413157e-17 C16.9667857,6.34413157e-17 16.1874286,0.779357143 16.1874286,1.79857143 L16.1874286,2.39807143 L15.5879286,2.39807143 C15.2282143,2.39807143 14.9884286,2.63785714 14.9884286,2.99757143 L14.9884286,5.39571429 L14.9884286,7.19428571 L13.7893571,7.19428571 C4.25664286,7.19435714 0,15.2280714 0,20.9836429 C0,21.3433571 0.239785714,21.5831429 0.5995,21.5831429 L7.79385714,21.5831429 C8.15357143,21.5831429 8.39335714,21.3433571 8.39335714,20.9836429 C8.39335714,19.6047143 9.41257143,15.5878571 13.7891429,15.5878571 L22.1825714,15.5878571 C23.5615,15.5878571 27.5783571,16.6070714 27.5783571,20.9836429 L27.5783571,35.3124286 C27.5783571,35.6721429 27.8181429,35.9119286 28.1778571,35.9119286 C28.5375714,35.9119286 28.7773571,35.6721429 28.7773571,35.3124286 L28.7773571,20.9236429 C28.7773571,16.1273571 24.8204286,14.6285714 22.7820714,14.3887143 L22.7820714,8.39342857 C27.9380714,8.69321429 34.7727143,12.6500714 34.7727143,20.9835714 L34.7727143,35.3723571 C34.7727143,35.7320714 35.0125,35.9718571 35.3722143,35.9718571 C35.7319286,35.9718571 35.9717143,35.7320714 35.9717143,35.3723571 L35.9717143,20.9836429 C35.9717143,11.4510714 27.938,7.19442857 22.1825,7.19442857 L20.9834286,7.19442857 L20.9834286,5.99528571 L21.5831429,5.99528571 Z M17.3864286,1.79857143 C17.3864286,1.43885714 17.6262143,1.19907143 17.9859286,1.19907143 C18.3456429,1.19907143 18.5854286,1.43885714 18.5854286,1.79857143 L18.5854286,2.39807143 L17.3864286,2.39807143 L17.3864286,1.79857143 Z M16.1873571,3.59721429 L16.7868571,3.59721429 L19.185,3.59721429 L20.3840714,3.59721429 C20.504,3.59721429 20.6838571,3.53728571 20.8037143,3.47728571 L23.6215,1.19907143 L34.7728571,1.19907143 L34.7728571,2.39814286 L24.5807857,2.39814286 C24.4608571,2.39814286 24.341,2.45807143 24.1611429,2.51807143 L21.3433571,4.79628571 L20.3841429,4.79628571 L16.1873571,4.79628571 L16.1874286,3.59721429 L16.1873571,3.59721429 Z M13.1297143,14.3887857 C8.75314286,14.7485 7.43414286,18.4056429 7.19435714,20.3840714 L1.19907143,20.3840714 C1.49885714,15.348 5.27585714,8.75314286 13.1297143,8.39342857 L13.1297143,14.3887857 Z M21.5832143,14.3887857 L14.3887857,14.3887857 L14.3887857,8.3935 L15.5878571,8.3935 L20.3841429,8.3935 L21.5832143,8.3935 L21.5832143,14.3887857 Z M19.7845714,7.19435714 L16.1873571,7.19435714 L16.1873571,5.99528571 L19.7845714,5.99528571 L19.7845714,7.19435714 Z M2.39814286,29.9765714 C2.75785714,29.9765714 2.99764286,30.2164286 2.99764286,30.5760714 L2.99764286,31.7751429 C2.99764286,32.1348571 2.75785714,32.3746429 2.39814286,32.3746429 C2.03842857,32.3746429 1.79864286,32.1348571 1.79864286,31.7751429 L1.79864286,30.5760714 C1.79864286,30.2163571 2.03842857,29.9765714 2.39814286,29.9765714 Z M2.39814286,22.7822143 C2.75785714,22.7822143 2.99764286,23.022 2.99764286,23.3817143 L2.99764286,24.5807857 C2.99764286,24.9405 2.75785714,25.1802857 2.39814286,25.1802857 C2.03842857,25.1802857 1.79864286,24.9405 1.79864286,24.5807857 L1.79864286,23.3817143 C1.79864286,23.022 2.03842857,22.7822143 2.39814286,22.7822143 Z M2.39814286,33.5737857 C2.75785714,33.5737857 2.99764286,33.8135714 2.99764286,34.1732857 L2.99764286,35.3723571 C2.99764286,35.7320714 2.75785714,35.9718571 2.39814286,35.9718571 C2.03842857,35.9718571 1.79864286,35.7320714 1.79864286,35.3723571 L1.79864286,34.1732857 C1.79864286,33.8135714 2.03842857,33.5737857 2.39814286,33.5737857 Z M2.39814286,26.3793571 C2.75785714,26.3793571 2.99764286,26.6192143 2.99764286,26.9788571 L2.99764286,28.1779286 C2.99764286,28.5376429 2.75785714,28.7774286 2.39814286,28.7774286 C2.03842857,28.7774286 1.79864286,28.5376429 1.79864286,28.1779286 L1.79864286,26.9788571 C1.79864286,26.6191429 2.03842857,26.3793571 2.39814286,26.3793571 Z M5.39578571,33.5737857 C5.7555,33.5737857 5.99528571,33.8135714 5.99528571,34.1732857 L5.99528571,35.3723571 C5.99528571,35.7320714 5.7555,35.9718571 5.39578571,35.9718571 C5.03607143,35.9718571 4.79628571,35.7320714 4.79628571,35.3723571 L4.79628571,34.1732857 C4.79628571,33.8135714 5.03607143,33.5737857 5.39578571,33.5737857 Z M5.39578571,22.7822143 C5.7555,22.7822143 5.99528571,23.022 5.99528571,23.3817143 L5.99528571,24.5807857 C5.99528571,24.9405 5.7555,25.1802857 5.39578571,25.1802857 C5.03607143,25.1802857 4.79628571,24.9405 4.79628571,24.5807857 L4.79628571,23.3817143 C4.79628571,23.022 5.03607143,22.7822143 5.39578571,22.7822143 Z M5.39578571,26.3793571 C5.7555,26.3793571 5.99528571,26.6192143 5.99528571,26.9788571 L5.99528571,28.1779286 C5.99528571,28.5376429 5.7555,28.7774286 5.39578571,28.7774286 C5.03607143,28.7774286 4.79628571,28.5376429 4.79628571,28.1779286 L4.79628571,26.9788571 C4.79628571,26.6191429 5.03607143,26.3793571 5.39578571,26.3793571 Z M5.39578571,29.9765714 C5.7555,29.9765714 5.99528571,30.2164286 5.99528571,30.5760714 L5.99528571,31.7751429 C5.99528571,32.1348571 5.7555,32.3746429 5.39578571,32.3746429 C5.03607143,32.3746429 4.79628571,32.1348571 4.79628571,31.7751429 L4.79628571,30.5760714 C4.79628571,30.2163571 5.03607143,29.9765714 5.39578571,29.9765714 Z" id="path-1"></path>
    </defs>
    <g id="Desktop" stroke="none" stroke-width="1" fill="none" fill-rule="evenodd">
        <g id="01-Landing-Page" transform="translate(-739.000000, -692.000000)">
            <g id="Below-Header" transform="translate(0.000000, 659.000000)">
                <g id="4" transform="translate(730.000000, 24.000000)">
                    <g id="icon/plumbers" transform="translate(9.000000, 9.000000)">
                        <g id="color/primary-1">
                            <g>
                                <mask id="mask-2" fill="white">
                                    <use xlink:href="#path-1"></use>
                                </mask>
                                <use id="Mask" fill="#8200FF" fill-rule="nonzero" xlink:href="#path-1"></use>
                                <g mask="url(#mask-2)" fill="#8200FF" fill-rule="nonzero" id="Rectangle">
                                    <g transform="translate(-12.000000, -12.000000)">
                                        <rect x="0" y="0" width="60" height="60"></rect>
                                    </g>
                                </g>
                            </g>
                        </g>
                    </g>
                </g>
            </g>
        </g>
    </g>
</svg>