<?xml version="1.0" encoding="utf-8"?>
<!-- Generator: Adobe Illustrator 18.0.0, SVG Export Plug-In . SVG Version: 6.00 Build 0)  -->
<!DOCTYPE svg PUBLIC "-//W3C//DTD SVG 1.1//EN" "http://www.w3.org/Graphics/SVG/1.1/DTD/svg11.dtd">
<svg version="1.1" id="Layer_1" xmlns="http://www.w3.org/2000/svg" xmlns:xlink="http://www.w3.org/1999/xlink" x="0px" y="0px"
	 viewBox="0 0 519 503" enable-background="new 0 0 519 503" xml:space="preserve">
<g>
	<rect x="91.4" y="98.4" fill="#3EC8AA" width="101.4" height="240.7"/>
	<rect x="108.2" y="228.3" fill="#FFFFFF" width="22.6" height="34.3"/>
	<rect x="153.9" y="228.3" fill="#FFFFFF" width="22.6" height="34.3"/>
	<rect x="108.2" y="173" fill="#FFFFFF" width="22.6" height="34.3"/>
	<rect x="153.9" y="173" fill="#FFFFFF" width="22.6" height="34.3"/>
	<rect x="108.2" y="116.2" fill="#FFFFFF" width="22.6" height="34.3"/>
	<rect x="153.9" y="116.2" fill="#FFFFFF" width="22.6" height="34.3"/>
	<rect x="330.7" y="64.9" fill="#3EC8AA" width="101.4" height="274.2"/>
	<rect x="347.5" y="212.9" fill="#FFFFFF" width="22.6" height="39"/>
	<rect x="393.2" y="212.9" fill="#FFFFFF" width="22.6" height="39"/>
	<rect x="347.5" y="149.9" fill="#FFFFFF" width="22.6" height="39"/>
	<rect x="393.2" y="149.9" fill="#FFFFFF" width="22.6" height="39"/>
	<rect x="347.5" y="85.2" fill="#FFFFFF" width="22.6" height="39"/>
	<rect x="393.2" y="85.2" fill="#FFFFFF" width="22.6" height="39"/>
	<rect x="210.1" y="10.8" fill="#3EC8AA" width="101.4" height="328.3"/>
	<rect x="226.9" y="188.1" fill="#FFFFFF" width="22.6" height="46.7"/>
	<rect x="272.6" y="188.1" fill="#FFFFFF" width="22.6" height="46.7"/>
	<rect x="226.9" y="112.5" fill="#FFFFFF" width="22.6" height="46.7"/>
	<rect x="272.6" y="112.5" fill="#FFFFFF" width="22.6" height="46.7"/>
	<rect x="226.9" y="35.1" fill="#FFFFFF" width="22.6" height="46.7"/>
	<rect x="272.6" y="35.1" fill="#FFFFFF" width="22.6" height="46.7"/>
	<path fill="#3EC8AA" d="M507.9,326.1c0,91.7-111.2,166.1-248.4,166.1S11.1,417.8,11.1,326.1l58.3-16.6V324l383.4,2.4v-16.9
		L507.9,326.1z"/>
</g>
</svg>
