<?xml version="1.0" encoding="UTF-8"?>
<svg width="26px" height="26px" viewBox="0 0 26 26" version="1.1" xmlns="http://www.w3.org/2000/svg" xmlns:xlink="http://www.w3.org/1999/xlink">
    <!-- Generator: Sketch 49 (51002) - http://www.bohemiancoding.com/sketch -->
    <title>@2xicon/report-icon</title>
    <desc>Created with Sketch.</desc>
    <defs></defs>
    <g id="icon/report-icon" stroke="none" stroke-width="1" fill="none" fill-rule="evenodd">
        <g id="google-drive-document">
            <rect id="Rectangle" fill="#D9D9D9" x="4" y="5" width="18" height="5"></rect>
            <rect id="Rectangle-Copy" fill="#E9E9E9" opacity="0.900000036" x="4" y="11" width="18" height="5"></rect>
            <rect id="Rectangle-Copy-2" fill="#F5F5F5" opacity="0.900000036" x="4" y="16" width="18" height="5"></rect>
            <path d="M23.1111111,0 L2.88888889,0 C1.3,0 0,1.3 0,2.88888889 L0,23.1111111 C0,24.7 1.3,26 2.88888889,26 L23.1111111,26 C24.7,26 26,24.7 26,23.1111111 L26,2.88888889 C26,1.3 24.7,0 23.1111111,0 Z M20.2222222,8.66666667 L5.77777778,8.66666667 L5.77777778,5.77777778 L20.2222222,5.77777778 L20.2222222,8.66666667 Z M20.2222222,14.4444444 L5.77777778,14.4444444 L5.77777778,11.5555556 L20.2222222,11.5555556 L20.2222222,14.4444444 Z M15.8888889,20.2222222 L5.77777778,20.2222222 L5.77777778,17.3333333 L15.8888889,17.3333333 L15.8888889,20.2222222 Z" id="Shape" fill="#000000" fill-rule="nonzero"></path>
        </g>
    </g>
</svg>