<?xml version="1.0" encoding="utf-8"?>
<!-- Generator: Adobe Illustrator 18.0.0, SVG Export Plug-In . SVG Version: 6.00 Build 0)  -->
<!DOCTYPE svg PUBLIC "-//W3C//DTD SVG 1.1//EN" "http://www.w3.org/Graphics/SVG/1.1/DTD/svg11.dtd">
<svg version="1.1" id="Layer_1" xmlns="http://www.w3.org/2000/svg" xmlns:xlink="http://www.w3.org/1999/xlink" x="0px" y="0px"
	 viewBox="0 0 24 23" enable-background="new 0 0 24 23" xml:space="preserve">
<g>
	<path fill="#FFFFFF" d="M11.9,6h0.2c0.8,0,1.4-0.6,1.4-1.4V1.9c0-0.8-0.6-1.4-1.4-1.4h-0.2c-0.8,0-1.4,0.6-1.4,1.4v2.8
		C10.5,5.4,11.2,6,11.9,6z"/>
	<path fill="#FFFFFF" d="M16.4,7.8c0.6,0.5,1.5,0.5,2-0.1l1.9-2c0.5-0.6,0.5-1.5-0.1-2L20,3.6c-0.6-0.5-1.5-0.5-2,0.1l-1.9,2
		c-0.5,0.6-0.5,1.5,0.1,2L16.4,7.8z"/>
	<path fill="#FFFFFF" d="M22,10.2l-2.7-0.1c-0.8,0-1.4,0.6-1.4,1.4l0,0.2c0,0.8,0.6,1.4,1.4,1.4l2.7,0.1c0.8,0,1.4-0.6,1.4-1.4
		l0-0.2C23.4,10.9,22.8,10.2,22,10.2z"/>
	<path fill="#FFFFFF" d="M18.3,15.7c-0.6-0.5-1.4-0.5-2,0l-0.1,0.1c-0.5,0.6-0.5,1.4,0,2l2,1.9c0.6,0.5,1.4,0.5,2,0l0.1-0.1
		c0.5-0.6,0.5-1.4,0-2L18.3,15.7z"/>
	<path fill="#FFFFFF" d="M12.1,17.2l-0.2,0c-0.8,0-1.4,0.6-1.4,1.4l0,2.7c0,0.8,0.6,1.4,1.4,1.4l0.2,0c0.8,0,1.4-0.6,1.4-1.4l0-2.7
		C13.5,17.8,12.9,17.2,12.1,17.2z"/>
	<path fill="#FFFFFF" d="M7.8,15.6c-0.5-0.6-1.4-0.6-2-0.1l-2,1.9c-0.6,0.5-0.6,1.4-0.1,2l0.1,0.1c0.5,0.6,1.4,0.6,2,0.1l2-1.9
		c0.6-0.5,0.6-1.4,0.1-2L7.8,15.6z"/>
	<path fill="#FFFFFF" d="M6.2,11.8l0-0.2c0-0.8-0.6-1.4-1.4-1.4l-2.7,0c-0.8,0-1.4,0.6-1.4,1.4l0,0.2c0,0.8,0.6,1.4,1.4,1.4l2.7,0
		C5.5,13.2,6.2,12.5,6.2,11.8z"/>
	<path fill="#FFFFFF" d="M5.8,7.8c0.6,0.5,1.4,0.5,2-0.1l0.1-0.1c0.5-0.6,0.5-1.4-0.1-2l-2-1.9c-0.6-0.5-1.4-0.5-2,0.1L3.8,3.9
		c-0.5,0.6-0.5,1.4,0.1,2L5.8,7.8z"/>
</g>
</svg>
